<?xml version="1.0" standalone="no"?>
<!DOCTYPE svg PUBLIC "-//W3C//DTD SVG 20010904//EN"
 "http://www.w3.org/TR/2001/REC-SVG-20010904/DTD/svg10.dtd">
<svg version="1.0" xmlns="http://www.w3.org/2000/svg"
 width="700.000000pt" height="700.000000pt" viewBox="0 0 700.000000 700.000000"
 preserveAspectRatio="xMidYMid meet">
<metadata>
Created by potrace 1.11, written by Peter Selinger 2001-2013
</metadata>
<g transform="translate(0.000000,700.000000) scale(0.100000,-0.100000)"
fill="#000000" stroke="none">
<path d="M3061 6954 c-6 -17 -11 -43 -11 -58 l0 -28 31 26 c40 34 77 34 106
-1 l23 -28 -2 45 c-4 61 -24 80 -87 77 -45 -2 -50 -5 -60 -33z"/>
<path d="M3328 6983 c-24 -6 -30 -30 -18 -74 12 -45 30 -61 30 -27 0 32 18 48
55 48 37 0 55 -15 56 -49 0 -23 1 -24 8 -7 10 26 -3 96 -20 107 -14 9 -81 10
-111 2z"/>
<path d="M3655 6970 c-33 -11 -51 -23 -54 -36 -2 -10 -11 -24 -19 -30 -12 -9
-17 -28 -17 -69 0 -74 -15 -85 -72 -58 l-41 20 -7 -34 c-8 -45 -46 -64 -74
-39 -11 10 -23 30 -26 45 l-6 27 -57 -28 c-31 -15 -63 -28 -69 -28 -7 0 -13
-5 -13 -11 0 -5 -4 -8 -9 -4 -5 3 -21 0 -35 -6 -19 -9 -32 -9 -50 -1 -18 8
-34 8 -63 -1 -35 -11 -25 -12 102 -17 l140 -6 -151 -2 c-120 -2 -154 -5 -164
-17 -11 -13 10 -15 166 -18 l179 -2 -182 -3 c-114 -1 -183 -6 -183 -12 0 -6
44 -10 111 -10 71 0 108 -4 104 -10 -3 -6 -52 -10 -111 -10 -63 0 -104 -4
-104 -10 0 -6 37 -10 90 -10 53 0 90 -4 90 -10 0 -5 -25 -10 -55 -10 -30 0
-55 -4 -55 -10 0 -6 27 -10 60 -10 33 0 60 -4 60 -10 0 -6 -27 -10 -60 -10
-33 0 -60 -4 -60 -10 0 -6 26 -10 59 -10 33 0 63 -4 66 -10 4 -6 -18 -10 -59
-10 -37 0 -66 -4 -66 -10 0 -6 30 -10 70 -10 63 0 70 -2 70 -20 0 -11 10 -26
23 -34 20 -13 22 -22 19 -77 -5 -73 -12 -65 -37 39 l-17 72 -64 0 c-71 0 -88
-17 -21 -22 l42 -4 -41 -8 c-34 -7 -41 -12 -41 -31 0 -56 -15 -155 -23 -150
-12 8 -1 -84 16 -124 8 -18 15 -52 15 -75 l2 -41 6 35 c5 28 8 31 14 17 4 -10
7 -27 7 -37 0 -13 5 -17 20 -13 11 3 20 14 20 25 0 10 -9 38 -20 60 -22 46
-25 68 -10 68 6 0 10 6 10 14 0 7 10 20 21 28 19 12 27 11 65 -7 44 -20 76
-60 58 -73 -25 -18 -44 -97 -24 -104 6 -2 4 -19 -4 -43 -10 -28 -21 -41 -36
-43 -35 -6 -66 6 -91 33 -45 47 -55 35 -49 -62 3 -49 9 -94 13 -100 6 -9 2
-13 -10 -13 -10 0 -27 -7 -37 -15 -36 -27 -42 -18 -53 77 -9 76 -14 95 -32
106 -17 12 -21 26 -23 71 l-1 56 -6 -60 -6 -60 -7 52 c-7 50 -41 131 -56 134
-4 1 -22 3 -40 5 -19 1 -36 5 -39 7 -2 3 5 24 15 46 11 23 17 41 13 41 -7 0
-31 44 -31 55 0 3 18 5 41 5 l40 0 -3 37 c-3 31 -7 38 -33 45 -16 5 -50 9 -75
9 -25 1 -54 8 -65 15 -18 13 -17 14 16 14 41 0 69 24 69 59 0 12 4 19 10 16 6
-3 10 5 10 19 0 29 -42 66 -76 66 -19 0 -24 5 -24 24 0 13 7 29 15 36 14 12
14 15 -1 31 -9 10 -25 21 -35 24 -26 9 -24 33 4 37 16 2 21 9 19 26 -2 12 2
22 7 22 15 0 14 27 -1 37 -7 4 -13 15 -13 23 0 8 -9 16 -20 18 -11 2 -28 11
-37 19 -13 11 -29 13 -67 8 -28 -4 -53 -11 -57 -16 -3 -5 -14 -9 -26 -9 -11 0
-22 -8 -25 -20 -3 -11 -9 -20 -14 -20 -5 0 -9 -9 -9 -20 0 -11 5 -20 10 -20 6
0 10 -8 8 -17 -2 -11 6 -22 20 -28 24 -11 30 -35 8 -35 -7 0 -19 -7 -26 -16
-8 -8 -21 -19 -31 -25 -16 -8 -18 -5 -15 26 1 20 -1 38 -6 41 -4 3 -8 13 -8
23 0 40 -98 56 -146 24 -46 -30 -38 -148 11 -166 8 -4 15 -16 15 -27 0 -30 28
-80 45 -80 19 0 45 39 45 67 0 14 6 23 15 23 25 0 115 -49 116 -63 0 -6 5 -2
11 10 9 18 20 23 67 25 47 3 56 6 59 23 1 11 -4 29 -11 39 -30 40 -116 12
-118 -38 0 -19 -1 -18 -10 4 -17 40 -14 82 6 96 14 10 16 22 12 49 -3 21 -2
33 3 30 6 -3 8 0 5 7 -2 7 2 21 9 31 20 26 88 10 97 -23 4 -14 7 -19 8 -11 1
8 4 11 7 8 4 -4 1 -20 -6 -37 -12 -28 -11 -33 9 -51 12 -11 21 -32 21 -49 0
-34 -19 -80 -33 -80 -6 0 -7 -20 -3 -49 4 -32 3 -50 -5 -53 -7 -2 -4 -14 7
-35 16 -28 17 -38 6 -90 -7 -33 -12 -94 -12 -137 0 -70 -2 -77 -16 -66 -8 8
-32 16 -52 19 l-37 6 -6 75 c-3 41 -9 96 -14 122 -6 37 -4 53 9 72 20 31 20
36 2 36 -8 0 -24 -12 -36 -27 -18 -23 -23 -25 -31 -13 -9 13 -10 13 -6 0 2 -8
-13 -35 -34 -58 -43 -50 -84 -126 -74 -142 3 -5 -3 -10 -14 -10 -14 0 -21 -6
-21 -19 0 -24 -31 -35 -76 -26 -42 7 -136 -20 -152 -45 -6 -10 -14 -34 -17
-54 l-7 -36 82 0 c74 0 81 -2 74 -17 -4 -10 -7 -28 -7 -40 1 -20 -4 -23 -33
-23 l-34 0 0 -75 0 -76 31 16 c49 26 59 15 59 -65 0 -38 -4 -70 -9 -70 -12 0
-37 -108 -28 -117 4 -3 17 3 30 15 12 11 34 23 49 27 21 6 30 2 43 -19 10 -14
21 -26 26 -26 12 0 11 52 -1 84 -10 29 11 161 29 179 14 14 15 127 1 127 -5 0
-10 9 -10 21 0 11 -5 29 -10 40 -10 18 -7 19 40 19 l50 0 0 -76 0 -76 33 7
c57 13 59 20 25 92 -16 33 -18 48 -10 51 7 2 12 9 12 16 0 21 64 38 94 25 14
-7 26 -18 26 -25 0 -7 5 -14 12 -16 8 -3 5 -19 -11 -53 -12 -26 -20 -57 -18
-67 5 -19 2 -22 -43 -32 -25 -5 -64 -57 -65 -86 0 -8 -5 -15 -12 -15 -6 0 -14
-3 -17 -7 -3 -5 -3 -6 0 -3 4 2 14 -6 24 -18 17 -21 17 -22 0 -34 -15 -10 -17
-21 -13 -51 7 -45 18 -54 58 -49 38 5 55 -1 55 -19 0 -8 7 -17 15 -21 14 -5
14 -8 -2 -25 -10 -11 -20 -42 -23 -71 -5 -48 -7 -52 -30 -49 -56 7 -116 0
-132 -15 -15 -13 -25 -14 -63 -4 -35 9 -49 8 -65 -1 -16 -10 -25 -9 -49 5 -16
10 -31 13 -33 7 -1 -5 -17 -12 -34 -16 -29 -6 -32 -3 -55 48 -20 45 -24 66
-22 142 2 60 -2 97 -11 115 -8 14 -19 46 -26 71 -16 60 -26 70 -69 70 -27 0
-44 -7 -61 -25 -21 -22 -23 -34 -22 -95 2 -68 1 -70 -28 -85 -31 -16 -48 -12
-92 23 -19 15 -108 7 -108 -10 0 -6 -6 -8 -14 -5 -8 3 -20 -1 -26 -9 -7 -8 -9
-14 -5 -14 4 0 2 -6 -4 -14 -11 -13 -5 -76 8 -76 3 0 13 -4 21 -10 15 -9 -1
-25 -78 -78 l-35 -23 5 45 c6 51 -11 78 -39 60 -22 -14 -29 -199 -8 -230 9
-14 11 -25 5 -29 -6 -3 -13 1 -16 10 -5 12 -18 15 -57 13 -27 -2 -52 -8 -54
-15 -3 -6 -11 -9 -19 -6 -8 3 -17 -3 -21 -13 -3 -11 -10 -21 -14 -24 -5 -3 -5
-30 0 -60 9 -55 6 -80 -9 -80 -5 0 -30 -18 -55 -40 -53 -46 -99 -54 -110 -19
-4 11 -18 25 -31 31 -31 14 -30 24 1 32 14 4 25 12 26 19 0 6 2 28 4 47 2 19
2 43 -1 52 -7 23 -44 19 -44 -5 0 -25 -42 -64 -93 -87 -23 -11 -37 -20 -30
-20 16 0 -18 -80 -34 -80 -7 0 -20 11 -29 25 -15 24 -15 27 0 44 21 23 20 38
-4 46 -31 10 -70 63 -70 96 0 55 62 90 155 90 33 0 76 -19 88 -38 4 -7 17 -13
27 -13 22 0 46 35 30 45 -5 3 -10 15 -10 26 0 15 6 19 32 17 24 -2 33 2 36 15
2 11 -3 17 -16 17 -16 0 -21 9 -26 53 -9 68 -34 109 -80 131 l-36 17 0 72 c0
40 -4 77 -8 82 -13 19 -89 38 -119 31 -53 -14 -73 -43 -73 -108 0 -55 -1 -58
-25 -58 -34 0 -95 -26 -111 -48 -14 -18 -19 -82 -6 -82 4 0 18 12 31 26 18 18
30 24 45 19 12 -4 40 -9 64 -12 67 -7 109 -63 48 -63 -26 0 -46 -17 -46 -40 0
-9 -8 -24 -18 -33 -17 -16 -21 -16 -60 0 -28 10 -42 22 -42 34 0 18 -17 35
-26 26 -3 -3 -1 -14 5 -25 9 -17 5 -21 -29 -35 -27 -10 -44 -26 -58 -53 -11
-22 -29 -44 -40 -51 -15 -9 -21 -28 -27 -77 -3 -36 -10 -66 -15 -66 -5 0 -22
-12 -39 -26 -23 -19 -31 -34 -31 -60 0 -26 3 -32 15 -28 11 5 15 -1 15 -25 0
-21 -5 -31 -15 -31 -29 0 -75 -30 -90 -59 -8 -16 -18 -68 -21 -115 -6 -75 -10
-88 -30 -101 -27 -17 -48 -55 -59 -102 -6 -30 -4 -33 17 -33 13 0 50 16 82 35
l58 35 39 -32 c21 -17 41 -29 42 -27 2 2 8 31 13 64 8 55 12 61 44 77 27 14
36 26 40 50 l6 33 15 -35 c9 -19 24 -61 33 -92 9 -32 18 -58 20 -58 6 0 66 98
66 108 0 21 32 20 73 -3 l43 -24 12 44 c11 40 17 47 67 71 54 25 57 25 76 8
18 -16 20 -16 38 0 12 11 25 15 33 10 7 -5 15 -9 18 -9 3 0 22 -10 42 -22 42
-25 54 -62 44 -135 -3 -23 -3 -71 0 -106 6 -59 9 -63 29 -58 17 4 23 -1 33
-28 7 -18 22 -42 33 -52 21 -19 21 -18 41 5 10 14 22 38 25 53 5 24 9 27 27
22 36 -11 114 -53 122 -65 13 -22 24 15 24 84 0 103 26 88 55 -31 12 -51 21
-70 29 -63 6 5 25 12 43 15 17 4 37 13 43 21 9 11 5 17 -19 30 -35 18 -81 84
-81 115 0 12 4 19 9 16 12 -8 79 21 118 50 l32 24 47 -35 c26 -20 64 -44 84
-54 l38 -18 23 30 c20 27 23 44 24 130 0 55 -4 105 -10 112 -12 15 -111 78
-139 88 -18 7 -17 10 10 40 16 18 32 36 36 41 5 6 18 0 32 -13 32 -30 92 -38
136 -16 86 41 79 25 73 162 l-6 123 131 0 c119 0 134 -2 152 -20 11 -11 20
-24 20 -30 0 -5 5 -10 10 -10 6 0 10 -7 10 -15 0 -8 13 -29 29 -47 29 -32 30
-32 50 -14 11 10 25 34 31 52 7 19 15 34 19 34 4 0 33 -10 65 -23 77 -30 98
-58 105 -144 4 -41 11 -68 18 -68 6 0 25 12 42 27 23 21 32 39 37 76 5 43 10
51 38 63 38 17 45 55 22 133 -14 49 -21 56 -61 76 l-45 22 0 72 c0 75 -11 102
-43 108 -16 3 -16 5 -4 22 14 19 15 19 41 -9 14 -15 25 -33 24 -39 -2 -13 21
-87 31 -98 3 -4 24 20 45 52 22 33 41 60 43 60 2 0 21 -9 42 -19 56 -29 81
-19 81 31 l0 40 19 -23 c15 -18 28 -23 60 -23 31 1 41 -2 42 -15 0 -9 8 14 17
51 14 53 20 65 31 58 12 -7 12 -11 2 -24 -12 -14 -1 -16 113 -16 132 0 147 6
103 40 -12 10 -29 34 -37 54 -9 24 -20 36 -33 36 -30 0 -57 19 -57 40 0 17 3
18 26 9 15 -5 35 -7 45 -4 15 5 19 1 20 -17 1 -19 3 -17 8 7 l6 30 80 0 80 0
6 -30 c6 -28 7 -27 8 10 1 50 -29 102 -65 111 -14 4 -41 2 -60 -4 -19 -6 -34
-6 -34 -1 0 5 5 9 10 9 16 0 12 62 -5 80 -15 16 -13 20 14 48 34 34 45 28 54
-28 3 -19 11 -50 19 -69 l13 -33 33 50 c17 27 32 55 32 60 0 6 6 15 14 19 40
24 49 126 16 181 -25 40 -25 42 -1 42 17 0 50 27 40 33 -2 1 -17 9 -34 19 -16
9 -37 29 -45 44 -8 16 -20 34 -27 41 -19 22 -5 40 37 47 21 3 58 21 81 38 l42
33 35 -32 c19 -18 55 -40 79 -50 44 -18 56 -44 29 -60 -7 -4 -18 -18 -25 -30
-6 -13 -25 -30 -42 -38 -39 -21 -33 -35 19 -51 58 -17 74 -31 62 -54 -11 -21
-14 -123 -3 -134 10 -9 33 -78 33 -98 0 -10 9 -22 20 -28 26 -14 67 14 73 50
3 18 4 15 6 -12 1 -32 5 -38 36 -48 41 -13 68 -50 37 -50 -10 0 -29 -11 -41
-24 -19 -20 -23 -37 -25 -92 -1 -37 -7 -69 -12 -71 -5 -2 -25 -11 -44 -21
l-35 -17 3 -95 c3 -74 7 -98 20 -108 15 -11 17 -10 20 10 6 40 32 61 98 82 19
6 21 3 16 -19 -2 -14 0 -31 6 -38 7 -7 11 -92 12 -217 2 -184 0 -212 -19 -270
-11 -36 -21 -68 -21 -72 0 -5 23 -8 51 -8 l52 0 -7 -37 c-19 -111 -19 -122 -2
-129 9 -3 16 -13 16 -21 0 -13 -3 -13 -15 -3 -8 7 -15 8 -15 2 0 -5 7 -15 15
-22 10 -8 15 -31 15 -65 l0 -53 -42 -14 c-26 -8 -44 -20 -46 -30 -3 -16 6 -18
77 -18 80 0 81 0 81 25 0 21 5 25 30 25 30 0 30 -1 30 -53 0 -42 -5 -58 -20
-72 -25 -22 -23 -58 3 -63 26 -5 87 45 87 71 0 42 12 67 31 67 15 0 19 -7 19
-38 0 -21 6 -47 14 -57 12 -16 10 -24 -17 -61 -33 -48 -31 -74 7 -74 18 0 33
11 50 36 13 20 33 42 45 50 17 12 19 21 14 64 -5 47 -4 50 17 50 20 0 22 -4
16 -31 -3 -17 -6 -60 -6 -94 0 -61 -1 -64 -35 -84 -61 -35 -47 -51 45 -51 l80
0 1 53 c0 28 4 72 8 97 l7 45 12 -40 c7 -22 12 -86 12 -143 l0 -102 -27 -11
c-35 -13 -64 -39 -57 -50 3 -5 39 -9 80 -9 l74 0 0 -40 c0 -30 -5 -42 -17 -47
-26 -9 -53 -34 -53 -50 0 -9 15 -13 50 -13 47 0 50 -2 50 -25 0 -32 21 -74 49
-99 17 -15 21 -31 21 -75 0 -31 5 -114 11 -186 l12 -130 54 -3 c48 -3 53 -1
53 17 0 24 18 103 32 143 9 23 13 26 29 17 31 -16 24 36 -11 91 -40 62 -46 98
-21 129 l19 25 32 -27 c17 -15 38 -27 45 -27 23 0 26 -16 9 -61 -11 -33 -14
-75 -12 -171 l4 -128 -31 -5 c-16 -3 -46 -7 -65 -9 -31 -3 -35 -7 -38 -35 -3
-31 -6 -33 -59 -35 -10 -1 -21 13 -30 34 l-13 35 6 -40 c3 -22 8 -51 11 -65 3
-18 -4 -36 -26 -64 -17 -21 -31 -44 -31 -51 0 -18 27 -38 44 -32 10 4 15 -8
18 -51 7 -77 1 -91 -44 -109 -48 -19 -67 -54 -75 -137 l-6 -63 -78 -7 c-164
-14 -390 -87 -539 -176 -362 -216 -596 -549 -676 -965 -24 -124 -24 -367 0
-495 53 -273 172 -507 361 -708 202 -215 476 -363 775 -419 126 -24 339 -23
475 1 378 69 716 287 923 595 64 97 148 274 178 379 l29 101 48 3 c61 4 64 19
7 35 l-46 13 12 97 c7 53 11 100 8 105 -3 4 9 5 25 2 39 -8 61 9 62 50 l2 31
4 -30 c7 -43 17 -52 57 -47 33 4 34 5 41 59 4 30 4 87 0 126 -3 40 -2 92 3
117 l8 45 8 -67 8 -68 73 0 c41 0 76 4 80 9 6 11 -30 48 -57 57 -15 4 -18 16
-18 71 0 64 0 65 18 44 9 -12 34 -24 54 -28 50 -8 57 13 24 69 -17 29 -23 51
-19 67 5 21 10 22 47 17 84 -13 108 -12 120 8 8 14 8 20 -2 23 -7 3 -26 16
-41 29 -26 21 -28 29 -24 67 3 23 12 58 20 77 8 19 17 74 20 122 3 49 10 88
14 88 5 0 9 8 10 18 0 11 2 12 6 4 3 -7 -1 -19 -7 -27 -9 -10 -9 -15 -1 -15 6
0 16 9 23 19 9 15 19 18 44 14 44 -7 51 11 21 55 -32 49 -37 69 -29 116 7 37
11 41 57 55 56 18 55 13 31 123 -9 42 -16 96 -16 119 l0 41 25 -16 c31 -21 45
-14 43 22 -1 15 2 91 7 169 6 110 11 143 23 148 11 4 12 8 2 20 -6 8 -9 22 -6
32 3 10 10 67 15 126 8 90 13 113 31 132 22 23 22 24 7 141 -13 97 -19 122
-36 135 -12 10 -21 24 -21 33 0 9 -4 16 -10 16 -5 0 -10 9 -10 20 0 29 -27 91
-51 116 -16 18 -20 37 -22 108 -1 55 -6 86 -13 86 -6 0 -11 -15 -11 -32 1 -18
0 -59 -1 -90 -2 -57 -2 -58 -32 -58 -22 0 -33 -7 -44 -27 -15 -27 -15 -26 -17
47 -1 41 -4 62 -6 47 l-4 -28 -23 33 c-23 34 -23 38 -1 135 4 15 19 26 55 38
57 19 66 42 26 69 -14 8 -28 26 -32 38 -12 39 -30 48 -93 48 -44 0 -61 4 -61
13 0 14 -31 47 -43 47 -4 0 -7 -7 -7 -15 0 -10 -10 -15 -30 -15 -34 0 -34 -3
-19 76 12 64 36 99 76 107 19 3 26 -1 33 -19 11 -29 39 -44 82 -44 43 0 71 20
73 51 2 21 6 24 34 21 18 -2 38 1 45 7 21 17 18 115 -3 138 -16 17 -16 19 3
35 18 14 19 20 9 37 -7 11 -13 27 -13 35 0 8 -14 35 -31 60 -29 44 -45 53 -96
55 -69 4 -69 3 -82 61 -9 39 -10 55 -2 58 6 2 11 18 11 36 0 35 -26 70 -60 81
-11 3 -23 18 -26 33 -21 98 -44 132 -88 132 -32 0 -35 2 -41 42 -4 24 -14 53
-22 65 -8 12 -13 28 -11 34 2 7 18 -9 35 -35 18 -26 34 -42 38 -36 3 6 -5 24
-19 40 -27 33 -41 68 -31 78 3 3 17 -7 30 -23 13 -17 24 -24 25 -17 0 25 -21
52 -53 66 l-32 14 30 1 c23 1 27 4 15 11 -8 5 -27 10 -42 10 -15 0 -30 5 -33
10 -3 6 4 10 16 10 18 0 20 3 11 12 -9 9 -18 9 -37 0 -36 -16 -54 -14 -31 3
30 23 12 29 -28 10 -20 -10 -43 -14 -52 -11 -27 11 -38 -6 -13 -20 l24 -13
-31 -1 c-28 0 -31 3 -26 25 2 14 8 28 13 31 13 7 11 85 -2 123 -12 35 -35 51
-73 51 -55 0 -94 -107 -62 -174 9 -19 19 -49 22 -68 4 -18 18 -45 31 -59 17
-19 21 -28 12 -31 -16 -5 -20 -88 -6 -147 9 -40 11 -42 19 -21 5 13 10 36 12
51 1 15 15 46 31 69 30 43 48 56 21 15 -23 -35 -34 -119 -15 -113 8 2 16 15
17 29 2 13 7 28 11 32 4 4 6 -6 3 -23 -3 -23 -1 -29 9 -25 9 3 20 -8 29 -28
18 -38 52 -47 81 -21 10 9 19 28 19 42 0 22 2 23 17 11 15 -13 16 -11 9 24 -4
21 -3 37 2 37 21 0 31 -73 12 -85 -21 -13 -51 -89 -55 -137 -2 -31 -9 -54 -20
-61 -22 -17 -34 -77 -35 -174 0 -75 -2 -83 -19 -83 -17 0 -20 -9 -23 -75 -3
-74 -3 -75 24 -84 27 -9 27 -9 31 37 l3 47 2 -51 c2 -40 -2 -55 -18 -69 -11
-10 -20 -24 -20 -31 0 -7 -4 -14 -9 -16 -5 -1 -6 -28 -3 -58 l6 -55 6 40 5 40
75 0 c80 1 90 -4 90 -47 0 -14 5 -28 12 -30 16 -6 -16 -85 -49 -119 -21 -23
-23 -30 -14 -48 7 -12 18 -21 27 -21 13 0 13 -4 1 -27 -8 -16 -18 -77 -21
-137 -6 -85 -11 -113 -24 -123 -25 -18 -32 -16 -32 12 0 66 -55 132 -103 123
-18 -4 -29 3 -46 28 -13 18 -21 37 -18 41 3 4 -10 9 -28 10 -33 3 -33 2 -29
-35 11 -88 9 -281 -3 -293 -20 -20 -15 -31 8 -24 14 5 19 3 15 -3 -4 -6 2 -8
14 -5 17 4 20 0 20 -24 0 -17 -6 -51 -14 -77 -23 -75 -10 -85 84 -70 l35 6 0
81 c0 82 0 82 28 85 19 2 27 -1 27 -12 0 -9 -9 -16 -20 -16 -24 0 -37 -27 -21
-43 8 -8 14 -8 23 1 6 6 8 15 4 19 -4 4 -11 1 -16 -7 -8 -12 -10 -12 -10 3 0
12 6 17 18 15 14 -3 17 -17 20 -101 l3 -97 -28 0 c-16 0 -46 -12 -67 -26 -29
-20 -45 -25 -71 -20 -27 5 -36 3 -49 -16 -13 -18 -20 -21 -33 -12 -31 19 -40
44 -20 55 9 6 15 15 11 20 -3 5 -1 16 5 23 13 16 -13 76 -34 76 -8 0 -11 7 -8
21 5 19 3 20 -18 13 -13 -4 -51 -9 -84 -10 -33 -1 -63 -3 -67 -3 -22 -2 -55
-110 -38 -121 11 -8 22 -80 12 -80 -5 0 -29 -18 -54 -39 -30 -27 -49 -37 -58
-31 -7 5 -42 7 -77 6 l-63 -3 0 119 c0 105 -2 120 -20 138 -11 11 -26 20 -33
20 -32 0 -50 -198 -32 -365 9 -81 -14 -61 -25 22 -4 32 -8 55 -9 51 0 -4 -11
3 -24 15 -13 12 -22 25 -20 29 2 4 -3 5 -11 2 -8 -3 -29 2 -46 11 -30 16 -32
16 -26 -2 3 -11 -6 -30 -22 -50 l-28 -32 -27 34 c-17 21 -24 40 -20 51 5 14 3
15 -14 6 -11 -6 -23 -8 -27 -5 -3 3 -6 1 -6 -5 0 -7 -7 -12 -15 -12 -11 0 -15
11 -15 38 0 21 -4 42 -9 47 -5 6 -19 38 -31 73 -19 53 -22 75 -17 140 4 42 13
101 22 130 14 45 22 56 51 68 19 8 39 12 43 10 5 -3 12 -41 15 -85 4 -44 15
-114 25 -155 10 -42 14 -73 10 -70 -5 3 -9 1 -9 -3 0 -5 -13 -16 -29 -26 -30
-18 -38 -49 -18 -74 14 -20 24 -16 31 12 4 14 11 25 17 25 13 0 61 -31 76 -50
9 -11 12 -12 13 -2 0 7 4 11 9 7 5 -3 13 0 17 6 5 8 3 9 -5 4 -9 -5 -12 0 -10
16 4 32 -18 70 -35 63 -27 -10 -27 18 3 155 17 77 31 151 31 165 0 14 1 26 3
26 15 0 124 -52 129 -62 4 -7 10 -43 13 -79 l6 -67 24 24 c31 30 50 30 87 -1
42 -35 114 -35 156 0 17 14 35 25 41 25 13 0 14 114 1 180 -6 31 -17 53 -39
71 -19 16 -31 35 -31 50 0 52 12 71 59 92 25 12 49 23 54 25 4 2 7 -7 8 -20 0
-12 8 -45 18 -72 l17 -49 34 54 c19 30 44 67 57 82 13 16 23 41 23 57 0 16 5
32 10 35 6 3 10 13 10 21 0 8 -5 12 -10 9 -7 -4 -8 3 -4 20 4 17 3 25 -5 23
-6 -2 -17 8 -24 22 -11 22 -19 25 -67 24 -46 -2 -58 -6 -78 -30 -21 -24 -24
-34 -18 -81 l6 -53 -110 0 c-81 0 -110 -3 -110 -12 0 -8 -15 -13 -41 -13 -38
0 -41 -2 -55 -40 -7 -22 -14 -47 -14 -56 0 -9 -8 -23 -18 -32 -17 -16 -20 -15
-40 6 -12 13 -22 33 -22 45 0 12 -10 43 -22 69 -16 33 -18 48 -10 51 7 2 12 9
12 17 0 21 28 38 47 29 10 -4 28 -8 40 -8 12 -1 29 -10 38 -21 15 -19 16 -17
11 25 -11 94 -19 135 -27 140 -5 3 -2 28 6 54 22 71 22 71 -39 68 -50 -4 -55
-2 -58 20 -2 13 -14 28 -30 36 -19 9 -28 21 -28 37 0 13 -7 45 -15 69 -15 43
-14 48 5 86 21 42 36 54 25 21 -6 -19 18 -36 36 -25 18 11 20 -26 4 -81 -18
-64 -15 -75 23 -75 67 0 72 6 72 81 l0 68 35 7 c21 4 37 13 40 25 4 10 13 19
21 19 21 0 17 14 -8 25 -17 8 -25 22 -29 56 -7 49 -24 89 -43 101 -17 12 -71
9 -84 -4 -9 -9 -12 -6 -12 14 0 39 -36 94 -71 108 -26 11 -29 17 -24 39 8 33
43 71 66 71 10 0 35 -12 56 -26 45 -31 104 -29 151 5 47 33 84 24 110 -26 19
-34 14 -50 -17 -63 -44 -18 -66 -75 -56 -147 5 -32 7 -85 6 -117 -1 -60 3 -65
23 -24 8 16 31 29 71 42 33 11 62 23 63 28 2 4 8 6 13 2 5 -3 8 0 7 7 -2 9 13
13 50 14 37 1 52 -2 52 -11 0 -7 19 -18 43 -24 23 -6 51 -14 61 -17 15 -4 18
-2 11 13 -29 71 -29 73 -12 92 37 41 46 104 33 227 -7 63 -15 117 -18 120 -6
6 -109 45 -119 45 -4 0 -10 -21 -13 -47 -4 -27 -10 -64 -13 -83 -6 -34 -7 -33
-18 25 -10 49 -10 62 1 70 16 11 44 111 44 153 0 70 -72 97 -125 48 -23 -22
-26 -30 -21 -70 2 -25 7 -50 11 -56 4 -6 -21 -10 -70 -10 -56 0 -75 3 -73 13
5 20 -39 73 -72 87 -16 7 -45 10 -64 8 l-35 -4 23 31 c13 16 26 40 30 52 9 30
30 35 54 13 19 -18 20 -18 43 6 31 33 72 32 98 -3 l20 -28 1 46 c0 58 -25 84
-78 81 -35 -2 -36 -1 -18 13 11 8 25 15 32 15 6 0 17 7 24 15 10 13 8 19 -14
36 -26 21 -66 91 -66 116 0 7 7 13 15 13 22 0 75 28 103 53 l23 21 22 -26 c31
-36 85 -71 98 -62 12 7 4 87 -13 117 -30 57 -135 75 -186 32 -17 -14 -33 -25
-36 -25 -3 0 -6 18 -6 40 0 60 -22 104 -59 120 -29 12 -37 11 -78 -10 -30 -15
-50 -33 -57 -51 -6 -16 -14 -29 -19 -29 -13 0 -20 29 -11 48 4 9 9 40 11 69 3
44 1 53 -19 67 -31 22 -91 21 -111 -2 -19 -20 -24 -111 -8 -128 18 -18 15 -50
-7 -78 -24 -32 -27 -42 -12 -51 5 -3 7 0 5 7 -3 8 1 22 9 33 14 18 15 15 16
-42 0 -35 -3 -63 -7 -64 -49 -5 -69 -4 -75 5 -5 7 -8 5 -8 -4 0 -17 -37 -44
-43 -32 -9 18 -7 183 2 178 6 -4 13 -23 17 -44 4 -20 9 -31 12 -24 2 8 16 21
31 30 l28 17 -24 76 c-25 83 -17 75 -120 116 -8 3 -13 -2 -13 -12 0 -20 -45
-77 -54 -68 -3 4 -3 -22 1 -56 6 -62 6 -63 -15 -52 -69 37 -142 -18 -142 -109
0 -37 -8 -42 -42 -24 l-29 15 6 -38 c4 -21 11 -53 15 -70 5 -18 5 -35 0 -38
-9 -5 -14 7 -25 62 -13 63 -91 97 -113 49 -21 -48 -122 -45 -137 3 -3 12 -15
21 -26 21 -10 0 -19 5 -19 10 0 6 10 8 23 5 15 -4 29 0 40 13 17 19 16 20 -13
32 -35 14 -70 54 -70 79 0 10 -9 17 -20 18 -26 2 -44 -31 -31 -55 6 -11 6 -24
0 -33 -7 -11 -9 -11 -9 4 0 14 -10 17 -61 17 -33 0 -70 5 -82 12 -12 6 -31 13
-42 14 -71 10 -86 13 -95 19 -6 3 -26 -3 -44 -15 l-34 -20 -34 19 c-31 19 -36
19 -77 5 -42 -14 -44 -14 -60 8 -9 13 -23 53 -33 89 -18 73 -63 169 -78 169
-6 0 -10 8 -10 18 0 25 -35 79 -61 93 -13 6 -45 14 -73 18 -49 6 -51 7 -54 39
-3 27 0 32 18 32 13 0 24 -9 30 -24 5 -14 18 -30 29 -35 47 -26 121 -1 121 41
0 17 4 20 29 15 41 -8 65 13 68 60 2 28 -3 46 -15 59 -18 18 -18 19 2 36 17
13 19 19 9 29 -7 7 -13 23 -13 36 0 12 -9 27 -20 33 -11 6 -20 17 -20 25 0 36
-117 51 -195 25z m123 -232 c-7 -20 -72 -22 -88 -4 -11 14 -6 16 40 16 37 0
50 -4 48 -12z m-468 -118 c0 -5 -9 -10 -20 -10 -11 0 -20 5 -20 10 0 6 9 10
20 10 11 0 20 -4 20 -10z m-10 -100 c0 -53 -3 -70 -14 -70 -10 0 -15 -23 -21
-82 -4 -54 -10 -77 -16 -67 -5 8 -9 28 -9 46 0 17 -5 35 -11 38 -6 5 -3 12 9
21 23 16 44 89 42 147 0 20 4 37 10 37 6 0 10 -28 10 -70z m-622 -4 c20 0 23
-5 20 -30 -3 -26 -7 -31 -28 -29 -14 1 -19 0 -12 -3 24 -11 12 -22 -20 -18
-45 4 -46 4 -23 15 17 8 15 8 -7 4 -26 -5 -28 -3 -28 28 0 43 5 47 44 40 17
-4 41 -7 54 -7z m772 -221 c26 -27 25 -29 -7 -39 -16 -5 -23 -3 -23 6 0 7 -3
23 -6 36 -8 29 7 28 36 -3z m2075 -55 c4 -6 25 -20 48 -31 23 -12 43 -22 44
-23 1 -1 -6 -24 -16 -50 -15 -40 -17 -70 -14 -170 3 -113 3 -119 -11 -83 -19
51 -34 67 -62 67 -19 0 -24 5 -24 25 0 14 8 29 20 35 14 7 20 7 20 0 0 -5 5
-10 11 -10 13 0 2 73 -12 78 -5 2 -9 8 -9 14 0 5 -9 21 -20 35 -23 29 -25 60
-8 98 12 27 23 32 33 15z m-76 -105 c-1 -41 -7 -59 -22 -72 -17 -15 -20 -16
-15 -2 4 9 10 38 13 65 13 83 25 89 24 9z m-377 -39 c4 -6 8 -23 8 -38 0 -14
5 -28 12 -30 8 -3 7 -16 -6 -48 -22 -55 -14 -136 16 -160 16 -13 21 -35 29
-135 6 -66 7 -130 4 -142 -10 -40 -23 -25 -30 35 -10 88 -16 86 -11 -5 l4 -82
-43 -55 c-41 -54 -63 -115 -49 -138 4 -7 13 2 23 23 15 32 19 34 78 39 61 5
61 5 79 -27 9 -18 21 -33 26 -33 15 0 8 55 -12 85 -32 48 -25 94 11 74 17 -8
19 -6 19 21 0 17 -12 49 -26 72 -37 58 -44 88 -27 121 14 29 27 34 39 16 3 -6
27 -20 51 -31 31 -13 41 -23 35 -31 -21 -29 -30 -100 -27 -213 l3 -122 -27 -5
c-19 -4 -31 -16 -41 -42 -8 -21 -26 -46 -40 -57 l-25 -21 78 5 c66 4 77 3 77
-11 0 -37 -13 -61 -32 -61 -14 0 -18 -5 -14 -17 10 -31 26 -125 26 -149 0 -19
-5 -24 -25 -24 -20 0 -25 5 -26 28 -2 23 -2 24 -6 4 -2 -12 -15 -33 -28 -46
-27 -27 -60 -127 -52 -157 8 -29 -23 -41 -75 -29 -24 5 -46 10 -50 10 -5 0 -8
-33 -8 -72 0 -40 -3 -117 -7 -170 l-6 -98 -34 0 -33 0 0 165 0 165 -120 0
-119 0 -7 -36 c-4 -20 -4 -73 -1 -117 4 -62 2 -83 -9 -95 -12 -11 -18 -11 -29
-2 -11 9 -15 36 -15 111 0 59 -4 99 -10 99 -5 0 -10 -4 -10 -10 0 -5 -20 -10
-45 -10 l-45 0 0 128 c0 182 10 209 89 233 18 5 4 8 -46 8 l-73 1 0 -116 c0
-144 -4 -151 -81 -126 l-54 17 -5 55 c-3 30 -17 80 -32 111 -37 79 -41 111
-23 214 9 50 16 118 15 152 -1 42 4 70 14 85 15 21 16 20 16 -35 0 -31 2 -57
5 -57 2 0 16 5 30 12 18 8 25 19 25 40 0 17 4 27 10 23 14 -9 12 -48 -2 -64
-7 -8 -8 -11 -2 -8 17 10 27 -113 13 -168 -6 -25 -9 -48 -6 -51 3 -4 64 -5
136 -5 124 2 130 1 145 -21 9 -12 16 -29 16 -38 0 -9 19 -30 42 -48 48 -37 80
-37 111 0 17 20 19 20 56 6 l39 -16 7 47 c10 65 20 79 66 93 47 14 60 35 34
54 -16 12 -20 11 -32 -6 -16 -22 -35 -25 -62 -10 -17 8 -17 13 -5 62 8 29 13
68 13 88 -1 19 -3 28 -6 18 -8 -31 -68 -50 -146 -46 -40 2 -80 8 -89 12 -13 6
-18 4 -18 -5 -1 -24 -50 -52 -94 -52 -82 0 -95 7 -80 47 5 14 8 14 30 0 16
-11 32 -14 51 -8 16 4 31 7 36 6 14 -4 27 47 20 80 -5 27 -4 30 12 24 16 -6
17 -2 12 36 -8 57 -45 91 -96 86 -35 -3 -36 -2 -36 32 0 24 -5 35 -15 35 -9 0
-15 -9 -14 -22 0 -20 -1 -20 -20 -7 -23 16 -74 18 -96 4 -20 -12 -60 26 -60
57 l0 24 29 -22 c16 -11 37 -19 47 -17 20 3 33 48 15 48 -6 0 -11 -10 -11 -22
-1 -21 -2 -21 -11 -5 -13 21 -4 37 21 37 12 0 21 9 24 23 13 57 15 57 9 -1 -4
-55 -3 -61 11 -56 10 4 25 -1 36 -11 19 -17 21 -17 41 1 16 15 24 16 39 6 12
-7 21 -8 25 -2 8 13 100 60 118 60 7 0 21 -18 31 -41 10 -22 25 -43 34 -46 21
-9 62 41 62 76 0 20 7 31 24 39 27 12 42 71 31 122 -4 17 -2 30 3 30 23 0 22
34 -1 59 -41 45 -79 146 -47 126 6 -4 10 8 10 28 0 18 2 36 5 38 9 10 150 5
157 -5z m-2272 -36 c7 0 10 -7 5 -17 -3 -10 -12 -53 -20 -97 -8 -43 -17 -81
-20 -85 -12 -12 -34 32 -49 99 -9 37 -19 76 -23 85 -4 11 -2 16 3 12 6 -3 23
3 40 14 25 17 30 17 40 4 6 -8 17 -15 24 -15z m1457 -97 c-3 -10 -5 -2 -5 17
0 19 2 27 5 18 2 -10 2 -26 0 -35z m116 -20 c3 -35 0 -53 -7 -53 -7 0 -10 21
-7 62 4 70 7 68 14 -9z m827 5 c0 -10 7 -21 15 -24 22 -9 18 -21 -7 -27 -29
-8 -38 7 -38 63 1 42 2 44 15 26 8 -11 15 -28 15 -38z m426 13 c0 -11 -4 -17
-8 -15 -4 3 -8 12 -8 20 0 8 4 14 8 14 4 0 8 -9 8 -19z m-2323 -26 c30 -6 37
-12 37 -30 0 -43 -8 -51 -49 -47 -21 2 -42 -1 -45 -7 -15 -24 -26 -9 -26 37 0
50 15 78 34 63 6 -5 28 -12 49 -16z m1227 -24 c0 -6 -4 -13 -10 -16 -5 -3 -10
1 -10 9 0 9 5 16 10 16 6 0 10 -4 10 -9z m-1324 -38 c-11 -11 -19 6 -11 24 8
17 8 17 12 0 3 -10 2 -21 -1 -24z m1571 5 c-3 -7 -5 -2 -5 12 0 14 2 19 5 13
2 -7 2 -19 0 -25z m-2492 -38 c3 -5 1 -10 -4 -10 -6 0 -11 5 -11 10 0 6 2 10
4 10 3 0 8 -4 11 -10z m1029 -5 c4 -12 -3 -15 -29 -15 -33 0 -43 8 -28 23 12
13 51 7 57 -8z m706 -35 c-20 -13 -33 -13 -25 0 3 6 14 10 23 10 15 0 15 -2 2
-10z m1413 -68 c-1 -5 6 -32 16 -59 l18 -50 -23 -22 c-13 -13 -24 -31 -24 -41
0 -25 -19 -35 -26 -16 -3 9 -12 16 -20 16 -20 0 -31 28 -36 92 l-4 56 40 20
c43 20 63 22 59 4z m-1358 -65 c-5 -38 -14 -66 -24 -74 -23 -18 -27 -16 -42
20 -7 17 -17 35 -23 39 -27 18 58 97 87 80 5 -2 6 -32 2 -65z m-3154 23 c4
-14 7 -19 8 -11 1 8 4 11 7 8 4 -4 1 -14 -7 -23 -7 -9 -13 -37 -14 -63 -1 -33
-9 -58 -25 -81 l-24 -34 -8 39 c-5 21 -15 46 -22 54 -8 9 -17 39 -21 68 -8 59
3 71 63 69 30 -1 37 -6 43 -26z m1699 -15 c-7 -8 -25 -15 -40 -15 -15 0 -33 7
-40 15 -11 13 -5 15 40 15 45 0 51 -2 40 -15z m-661 -97 l-13 -83 -12 60 c-11
55 -11 61 9 86 12 14 23 25 25 24 2 -2 -2 -41 -9 -87z m1011 72 c0 -11 -4 -20
-10 -20 -5 0 -10 9 -10 20 0 11 5 20 10 20 6 0 10 -9 10 -20z m-1097 -12 c21
-20 24 -30 20 -78 -3 -30 -6 -56 -8 -58 -1 -1 -11 33 -23 78 -11 44 -18 80
-16 80 1 0 14 -10 27 -22z m2377 2 c0 -14 -48 -26 -68 -17 -34 15 -26 22 23
22 25 0 45 -2 45 -5z m-2552 -58 c2 -12 7 -20 12 -17 5 3 4 -8 -2 -25 -8 -25
-7 -34 6 -49 18 -20 20 -55 6 -97 -9 -27 -14 -29 -44 -26 -19 2 -42 -1 -52 -6
-16 -9 -20 -5 -31 31 -17 56 -16 77 4 99 14 16 15 24 6 49 -6 16 -8 27 -3 24
4 -3 11 7 14 21 6 22 11 25 44 22 29 -3 38 -9 40 -26z m4496 -53 c-6 -11 -44
-12 -44 -1 0 4 11 8 25 8 14 1 22 -2 19 -7z m-3536 -97 c-1 -50 -7 -78 -25
-109 -13 -24 -26 -43 -28 -43 -2 0 -14 17 -26 37 -17 28 -24 54 -26 110 -2 79
-6 74 62 86 35 6 45 -11 43 -81z m3152 63 c0 -8 9 -19 19 -25 17 -8 19 -18 15
-67 -3 -32 -7 -59 -8 -61 -2 -1 -12 33 -22 76 l-18 79 -73 -5 c-50 -3 -73 -1
-73 7 0 7 27 11 80 11 64 0 80 -3 80 -15z m365 -17 c-10 -32 -34 -68 -45 -68
-10 0 0 32 20 71 15 27 33 24 25 -3z m-485 -18 c-19 -13 -30 -13 -30 0 0 6 10
10 23 10 18 0 19 -2 7 -10z m-1057 -45 c36 -7 37 -8 37 -53 0 -36 -3 -43 -12
-34 -15 15 -74 16 -83 2 -14 -23 -25 -7 -25 38 0 50 15 78 34 63 6 -5 28 -12
49 -16z m-2783 0 c10 -12 10 -15 -4 -15 -9 0 -16 7 -16 15 0 8 2 15 4 15 2 0
9 -7 16 -15z m2240 -107 c-7 -37 -14 -68 -16 -68 -2 0 -4 44 -4 98 0 94 1 96
16 67 13 -25 13 -40 4 -97z m1235 96 c-16 -16 -29 -19 -20 -4 3 6 0 10 -7 10
-10 0 -10 2 1 9 8 5 20 7 27 4 11 -4 11 -8 -1 -19z m255 -8 c0 -17 -36 -27
-67 -20 -36 10 -27 23 20 27 23 2 43 4 45 5 1 1 2 -4 2 -12z m-3337 -13 c-34
-2 -93 -2 -130 0 -37 2 -9 3 62 3 72 0 102 -1 68 -3z m2293 -30 c-11 -11 -19
6 -11 24 8 17 8 17 12 0 3 -10 2 -21 -1 -24z m-2246 -3 c0 -6 -50 -10 -131
-10 -84 0 -128 4 -124 10 4 6 58 10 131 10 76 0 124 -4 124 -10z m2354 -35 c4
-12 -3 -15 -29 -15 -33 0 -43 8 -28 23 12 13 51 7 57 -8z m-2956 -12 c41 -27
54 -41 42 -48 -5 -3 -10 -23 -10 -44 0 -27 -7 -44 -25 -61 l-26 -24 -24 29
c-13 17 -24 36 -25 43 0 6 -4 12 -10 12 -5 0 -10 16 -10 36 0 19 4 33 9 30 4
-3 13 6 19 19 14 30 24 31 60 8z m602 7 c0 -6 -52 -10 -136 -10 -87 0 -133 4
-129 10 4 6 60 10 136 10 79 0 129 -4 129 -10z m-1530 -61 c0 -6 -4 -7 -10 -4
-5 3 -10 11 -10 16 0 6 5 7 10 4 6 -3 10 -11 10 -16z m730 -20 c0 -5 -9 -4
-19 3 -11 7 -17 16 -14 20 5 10 33 -10 33 -23z m4985 -54 c-6 -22 -16 -50 -23
-62 -15 -27 -16 -80 -1 -85 6 -2 10 -13 7 -23 -5 -28 -45 50 -62 123 -8 32
-17 64 -20 72 -4 10 6 21 31 35 l37 20 21 -20 c17 -17 19 -25 10 -60z m-5101
55 c14 -5 26 -17 26 -25 0 -10 5 -13 12 -9 8 5 9 2 4 -12 -18 -42 -18 -55 -1
-68 14 -10 16 -21 11 -57 -4 -24 -10 -95 -12 -157 l-6 -113 -51 3 -52 3 -7
120 c-3 66 -9 134 -13 151 -5 22 -2 35 10 48 11 11 15 26 12 44 -5 27 16 82
33 82 5 0 20 -4 34 -10z m-684 -81 c0 -11 -43 -19 -68 -12 -37 9 -25 20 23 20
25 0 45 -4 45 -8z m5120 -9 c0 -11 -4 -20 -10 -20 -5 0 -10 9 -10 20 0 11 5
20 10 20 6 0 10 -9 10 -20z m170 -6 c0 -8 -4 -14 -10 -14 -5 0 -10 9 -10 21 0
11 5 17 10 14 6 -3 10 -13 10 -21z m-1146 -27 c35 -2 36 -3 36 -44 0 -23 -4
-45 -10 -48 -5 -3 -10 -1 -10 4 0 6 -18 11 -40 11 -22 0 -40 -4 -40 -10 0 -5
-4 -10 -10 -10 -5 0 -10 22 -10 48 0 52 15 78 36 61 7 -5 28 -11 48 -12z
m-4056 -31 c-43 -21 -50 -34 -63 -109 -6 -37 -7 -38 -24 -22 -29 26 -99 13
-133 -24 -22 -24 -28 -27 -32 -14 -4 9 2 25 13 37 10 12 22 36 26 54 4 18 11
30 16 26 5 -3 9 6 9 20 0 24 4 26 43 26 23 0 55 8 71 18 19 11 43 16 72 13
l44 -3 -42 -22z m4739 -30 c17 -6 20 -11 14 -24 -5 -9 -14 -29 -20 -44 -18
-46 -54 -38 -81 17 -21 43 -21 47 -6 71 l17 25 27 -19 c15 -11 37 -22 49 -26z
m-3547 20 c0 -17 -36 -27 -67 -20 -30 8 -30 28 0 21 12 -3 31 -1 42 3 11 5 21
9 23 9 1 1 2 -5 2 -13z m2770 -6 c0 -11 -4 -20 -10 -20 -5 0 -10 9 -10 20 0
11 5 20 10 20 6 0 10 -9 10 -20z m152 -12 c-9 -9 -12 -7 -12 12 0 19 3 21 12
12 9 -9 9 -15 0 -24z m1667 12 c30 0 31 -2 31 -44 l0 -43 -50 5 c-35 3 -50 1
-50 -7 0 -7 -4 -9 -10 -6 -14 9 -13 88 2 103 7 7 17 8 29 2 10 -6 31 -10 48
-10z m-1721 -57 c2 -9 -8 -13 -32 -13 -34 0 -44 8 -29 24 11 11 56 2 61 -11z
m1730 -50 c2 -9 -8 -13 -32 -13 -26 0 -36 4 -36 16 0 19 61 16 68 -3z m12 -39
c0 -19 -46 -43 -69 -37 -13 3 -21 13 -21 27 0 18 6 21 45 21 27 0 45 -5 45
-11z m-2371 -196 c1 -96 -2 -105 -26 -90 -13 8 -10 207 4 267 6 27 8 24 14
-25 4 -30 7 -99 8 -152z m-122 80 c-2 -13 -4 -3 -4 22 0 25 2 35 4 23 2 -13 2
-33 0 -45z m247 -75 c4 -87 3 -133 -4 -133 -6 0 -10 52 -10 137 0 75 2 134 4
132 2 -2 6 -64 10 -136z m967 64 c-5 -12 -11 -47 -15 -77 -4 -30 -11 -62 -17
-70 -14 -22 -36 11 -45 69 -4 25 -13 60 -20 78 -17 41 -18 38 8 40 12 1 28 8
35 16 13 12 18 11 39 -9 18 -19 21 -29 15 -47z m-4084 21 c-3 -8 -6 -5 -6 6
-1 11 2 17 5 13 3 -3 4 -12 1 -19z m-450 -50 c-2 -13 -4 -5 -4 17 -1 22 1 32
4 23 2 -10 2 -28 0 -40z m452 -40 c1 -5 -3 -8 -9 -8 -5 0 -10 12 -9 28 0 24 1
25 9 7 5 -11 9 -23 9 -27z m5235 22 c23 0 34 -6 41 -22 6 -13 17 -22 25 -20
11 3 12 0 4 -8 -6 -6 -38 -15 -70 -19 -67 -9 -104 6 -104 43 0 31 10 38 44 32
16 -3 43 -6 60 -6z m353 -72 c-3 -8 -6 -5 -6 6 -1 11 2 17 5 13 3 -3 4 -12 1
-19z m-97 -36 c0 -15 -24 -32 -45 -32 -21 0 -45 17 -45 32 0 4 20 8 45 8 25 0
45 -4 45 -8z m-1579 -301 c0 -31 4 -82 8 -113 4 -32 6 -58 6 -58 -1 0 -16 5
-34 11 -35 12 -35 13 -24 169 6 92 6 93 25 70 12 -15 18 -40 19 -79z m182 27
c2 -7 -5 -23 -17 -36 -17 -20 -18 -24 -6 -32 13 -8 13 -10 1 -10 -12 0 -12 -3
-3 -12 19 -19 14 -25 -18 -23 -31 2 -53 22 -71 64 -12 30 6 58 27 40 11 -9 19
-8 36 4 28 20 45 21 51 5z m-308 -68 c4 -11 11 -17 17 -14 7 4 7 -2 2 -17 -4
-13 -7 -42 -6 -64 2 -22 0 -69 -4 -105 -5 -55 -8 -61 -16 -40 -5 14 -10 37
-10 52 -1 29 -18 41 -43 32 -15 -6 -21 -24 -7 -24 4 0 5 -21 3 -47 l-4 -48
-25 65 c-13 36 -26 85 -28 109 -2 25 -8 49 -14 55 -13 13 -13 39 -1 31 5 -3
12 4 16 15 5 17 15 20 60 20 45 0 55 -3 60 -20z m599 -22 c3 -13 6 -39 6 -60
0 -31 -3 -35 -20 -31 -16 4 -18 10 -13 32 4 14 7 38 6 54 -3 33 12 36 21 5z
m-203 -61 c-8 -8 -11 -2 -11 19 0 40 14 54 18 19 2 -15 -1 -32 -7 -38z m-601
-34 c0 -7 -4 -13 -10 -13 -5 0 -10 12 -10 28 0 21 2 24 10 12 5 -8 10 -21 10
-27z m1443 -123 c33 -1 38 -16 21 -61 -10 -24 -22 -47 -28 -51 -17 -12 -56 -9
-56 3 0 6 -9 22 -20 36 -24 31 -26 70 -4 101 l15 23 31 -26 c16 -14 35 -25 41
-25z m307 19 c0 -3 -11 -11 -25 -17 -20 -9 -30 -9 -45 0 -30 19 -25 23 25 23
25 0 45 -3 45 -6z m-810 -160 c0 -15 -45 -25 -67 -15 -34 16 -28 21 22 21 25
0 45 -3 45 -6z m957 -111 c-2 -24 -4 -5 -4 42 0 47 2 66 4 43 2 -24 2 -62 0
-85z m144 43 c16 -15 18 -23 9 -45 -5 -15 -10 -39 -10 -54 0 -42 -20 -104 -33
-99 -10 3 -23 39 -44 122 -6 22 -14 48 -18 58 -5 12 -3 16 7 12 7 -3 22 1 33
9 26 20 32 20 56 -3z m-451 -101 c-7 -39 -14 -70 -16 -70 -2 0 -4 42 -4 92 0
87 1 91 16 70 14 -20 14 -32 4 -92z m-425 -46 c32 -8 47 -38 35 -70 -9 -22 -7
-30 10 -46 24 -22 25 -33 5 -88 -8 -23 -15 -55 -15 -71 0 -27 -2 -28 -20 -17
-17 11 -25 10 -48 -3 l-28 -16 -12 61 c-6 34 -14 73 -18 87 -4 17 0 31 11 43
12 11 16 27 12 49 -4 33 16 77 37 77 6 0 20 -3 31 -6z m-879 -145 c10 -17 -13
-36 -27 -22 -12 12 -4 33 11 33 5 0 12 -5 16 -11z m1134 -39 c0 -21 -15 -27
-25 -10 -7 12 2 30 16 30 5 0 9 -9 9 -20z m170 -6 c0 -8 -6 -14 -14 -14 -9 0
-12 7 -9 20 6 22 23 18 23 -6z m-240 -15 c0 -5 -7 -6 -15 -3 -8 4 -15 13 -15
21 0 13 3 13 15 3 8 -7 15 -16 15 -21z m165 -59 c21 8 25 7 25 -9 0 -15 12
-22 53 -32 28 -6 69 -21 90 -32 39 -20 50 -47 18 -47 -10 0 -29 -8 -41 -18
-30 -25 -46 -126 -25 -159 8 -12 17 -41 21 -65 4 -26 15 -50 28 -60 19 -15 22
-15 38 -1 10 9 18 22 18 30 0 23 24 93 32 93 14 0 8 111 -7 140 -14 27 -14 30
0 30 8 0 15 -7 15 -15 0 -8 13 -29 29 -47 29 -32 30 -32 50 -14 11 10 25 34
31 52 13 39 11 37 43 25 24 -9 25 -9 17 19 -9 32 1 46 26 36 9 -3 29 2 45 11
22 13 31 15 41 5 9 -9 6 -17 -12 -37 -23 -25 -23 -25 -4 -40 19 -15 19 -15 -1
-9 -20 6 -20 5 -1 -10 11 -9 17 -18 14 -22 -4 -3 0 -20 7 -37 7 -18 16 -96 20
-182 6 -141 5 -152 -15 -183 -17 -28 -25 -33 -53 -30 -26 2 -31 7 -29 23 6 36
11 150 6 134 -5 -16 -64 -49 -89 -49 -10 0 -15 10 -15 29 0 21 -8 35 -28 49
-49 35 -90 32 -117 -8 -13 -19 -26 -28 -36 -25 -21 7 -25 -5 -24 -89 0 -46 5
-71 13 -74 6 -2 12 -10 12 -18 0 -16 50 -44 80 -44 11 0 20 6 20 14 0 7 14 30
30 51 l30 38 0 -43 c0 -26 7 -51 16 -61 12 -13 19 -52 25 -141 5 -68 13 -145
19 -171 14 -66 13 -97 -4 -97 -15 0 -26 78 -27 209 0 47 -7 104 -15 126 -7 22
-11 29 -8 15 9 -38 23 -330 17 -346 -6 -17 -82 -54 -110 -54 -16 0 -23 8 -29
33 -4 17 -9 27 -11 21 -2 -6 5 -36 17 -65 19 -51 19 -55 3 -66 -9 -7 -23 -13
-30 -13 -9 0 -13 -11 -12 -32 3 -39 -9 -78 -22 -78 -30 0 -36 25 -31 142 l5
118 -50 0 c-56 0 -73 12 -73 52 l0 28 95 0 95 0 -7 113 c-3 61 -8 115 -12 119
-3 4 -5 -25 -3 -65 2 -59 0 -69 -10 -57 -7 8 -17 15 -23 15 -5 0 -24 4 -41 8
-54 14 -50 70 6 80 22 4 21 4 -5 6 -29 1 -31 3 -27 36 2 19 8 32 13 29 13 -7
11 50 -2 79 -6 14 -22 30 -35 37 -30 16 -92 7 -117 -18 -21 -21 -38 -110 -19
-98 8 5 12 -4 12 -26 0 -61 54 -103 100 -78 17 9 20 8 20 -14 0 -28 -27 -41
-66 -32 -15 4 -24 14 -24 26 0 14 -7 20 -24 20 -33 0 -74 35 -85 73 -9 32 -9
32 -10 5 -1 -23 -6 -28 -26 -28 -28 0 -32 -17 -14 -68 6 -17 9 -41 7 -54 -3
-18 -7 -13 -16 22 l-12 45 5 -40 c3 -22 5 -69 5 -105 0 -46 3 -61 10 -50 7 11
10 1 10 -36 0 -41 -5 -55 -25 -74 -21 -19 -25 -21 -25 -7 0 12 -9 17 -30 17
-20 0 -30 5 -30 15 0 12 -19 15 -111 15 l-111 0 -83 78 c-46 43 -120 102 -164
132 -83 57 -94 75 -63 103 15 14 17 26 12 67 -6 44 -4 50 12 50 15 0 18 -8 18
-46 0 -45 0 -46 28 -39 15 3 30 9 34 13 8 9 -13 92 -24 92 -12 0 -9 33 5 50
36 46 101 43 127 -6 11 -19 10 -29 -4 -57 -24 -53 -21 -84 10 -91 15 -4 28 -5
31 -2 3 2 7 96 10 208 6 192 5 202 -11 189 -17 -14 -17 -45 0 -103 4 -15 -1
-18 -30 -18 -25 0 -36 4 -36 15 0 12 -13 15 -55 15 -42 0 -55 -3 -55 -15 0
-10 -11 -15 -35 -15 -24 0 -35 5 -35 14 0 8 -5 18 -12 22 -8 5 -9 -2 -5 -24 7
-33 -1 -40 -20 -21 -7 7 -9 33 -6 69 3 35 1 60 -5 64 -12 7 -42 -20 -42 -39 0
-7 -16 -27 -36 -43 -33 -27 -35 -32 -23 -53 26 -46 -4 -89 -61 -89 -60 0 -90
47 -58 92 18 26 18 27 0 32 -40 13 -113 124 -111 169 0 12 3 16 6 10 8 -21 29
-15 44 13 8 16 35 36 67 50 l54 24 59 -28 c46 -21 60 -33 64 -54 10 -44 33
-35 37 14 l3 43 59 16 c33 8 62 21 64 28 5 14 -28 81 -40 81 -12 0 -9 20 5 34
23 23 109 46 131 34 35 -19 57 -51 43 -63 -7 -5 -19 -24 -26 -42 -11 -28 -11
-34 3 -48 9 -9 32 -21 51 -26 19 -5 36 -18 40 -28 10 -31 31 -31 65 -1 31 27
66 38 143 43 30 2 44 -3 65 -25 30 -31 54 -35 71 -14 9 11 9 20 2 35 -6 11
-11 28 -11 39 0 11 -7 25 -15 32 -8 7 -15 18 -15 25 0 14 42 35 70 35 11 0 29
9 39 19 14 14 21 16 25 8 2 -7 5 -2 5 10 1 20 4 21 26 13 16 -6 34 -6 50 0z
m-805 -91 c-18 -42 -25 -28 -9 18 7 21 14 32 17 25 2 -7 -2 -26 -8 -43z m-455
-73 c-9 -46 -33 -53 -115 -32 -34 9 -63 16 -66 16 -2 0 2 12 8 26 11 23 16 25
52 20 23 -3 59 -2 81 3 22 4 41 6 43 5 2 -1 0 -18 -3 -38z m745 19 c0 -8 -7
-15 -16 -15 -14 0 -14 3 -4 15 7 8 14 15 16 15 2 0 4 -7 4 -15z m-295 -5 c3
-5 1 -10 -4 -10 -6 0 -11 5 -11 10 0 6 2 10 4 10 3 0 8 -4 11 -10z m-528 -170
c7 -14 13 -19 13 -11 0 8 3 12 6 9 3 -4 -1 -17 -10 -30 -9 -13 -15 -40 -14
-60 1 -35 -27 -98 -48 -105 -5 -2 -20 14 -31 34 -17 30 -21 53 -20 108 2 69 2
70 32 76 45 10 58 6 72 -21z m153 -141 c0 -11 -4 -17 -10 -14 -5 3 -10 15 -10
26 0 11 5 17 10 14 6 -3 10 -15 10 -26z m1397 -131 c-3 -8 -6 -5 -6 6 -1 11 2
17 5 13 3 -3 4 -12 1 -19z m-1030 -50 c-3 -8 -6 -5 -6 6 -1 11 2 17 5 13 3 -3
4 -12 1 -19z m869 -42 c16 -2 31 -5 34 -5 3 -1 4 -22 1 -47 -2 -33 -6 -43 -14
-35 -14 14 -74 14 -82 1 -21 -35 -35 52 -15 91 8 15 15 17 29 10 10 -6 31 -12
47 -15z m12 -103 c2 -9 -8 -13 -32 -13 -34 0 -44 8 -29 24 11 11 56 2 61 -11z
m-143 -173 c10 -11 32 -25 50 -31 l31 -12 -17 -53 c-14 -41 -17 -78 -14 -173
l4 -120 -41 -11 c-60 -17 -68 -10 -67 57 1 32 4 72 8 88 6 30 29 40 43 20 4
-5 8 8 8 29 0 27 -8 50 -26 73 -39 51 -47 90 -27 124 20 34 24 35 48 9z
m-1290 -225 c39 -8 113 -36 165 -61 77 -39 109 -62 175 -128 126 -127 183
-252 192 -421 11 -216 -82 -414 -255 -544 -37 -28 -70 -51 -73 -51 -3 0 -5 34
-4 75 2 74 2 74 48 124 102 109 148 219 149 356 1 150 -53 276 -164 380 -115
109 -239 157 -402 156 -196 -1 -361 -84 -467 -235 -142 -202 -124 -461 46
-644 l55 -60 0 -76 0 -77 -32 18 c-17 10 -66 52 -108 93 -129 128 -190 274
-190 455 0 178 57 313 190 446 96 97 198 156 322 189 90 23 254 26 353 5z
m1115 -5 c0 -5 -4 -10 -10 -10 -5 0 -10 5 -10 10 0 6 5 10 10 10 6 0 10 -4 10
-10z m275 -34 c12 -11 12 -15 1 -19 -7 -3 -19 -1 -27 4 -11 7 -11 9 -1 9 7 0
10 5 7 10 -9 15 4 12 20 -4z m-205 -76 c30 -27 33 -32 20 -43 -22 -18 -40 -54
-40 -80 0 -20 8 -25 63 -37 34 -8 79 -13 100 -12 32 3 37 1 37 -18 0 -29 -18
-60 -34 -60 -10 0 -14 -33 -18 -144 -3 -99 -8 -149 -17 -160 -19 -22 -34 -20
-28 4 6 22 -8 28 -16 8 -2 -7 -2 48 1 122 l4 135 -22 -24 c-21 -21 -22 -28
-13 -77 13 -73 -9 -74 -26 -1 -6 28 -18 64 -25 79 -8 14 -19 43 -26 65 -7 21
-35 82 -61 136 -27 54 -47 102 -44 108 4 5 16 9 28 9 12 0 29 5 37 10 25 16
43 11 80 -20z m-1251 -125 c139 -33 245 -118 304 -243 29 -60 32 -76 31 -157
0 -58 -7 -106 -18 -135 -17 -47 -83 -150 -95 -150 -4 0 -28 19 -53 43 l-45 44
24 29 c57 71 68 205 25 289 -92 179 -353 216 -494 71 -51 -53 -71 -100 -76
-179 -5 -75 13 -138 53 -185 l22 -27 -50 -45 -50 -44 -24 29 c-14 17 -39 59
-56 95 -29 60 -32 73 -32 165 0 92 3 105 32 166 70 142 233 244 398 248 22 0
69 -6 104 -14z m-24 -254 c156 -71 125 -274 -47 -315 -15 -3 -48 -1 -74 5
-119 30 -172 171 -97 260 54 64 143 85 218 50z m1414 -238 c-1 -62 -6 -56 -11
15 -2 23 0 42 4 42 5 0 7 -26 7 -57z m-1380 -183 c116 -59 152 -161 116 -330
-48 -228 -148 -410 -225 -410 -74 0 -158 139 -211 347 -41 158 -39 250 6 315
31 44 93 85 149 99 44 11 122 1 165 -21z"/>
<path d="M4936 6032 c-3 -6 -1 -14 5 -17 15 -10 25 3 12 16 -7 7 -13 7 -17 1z"/>
<path d="M5036 6031 c-4 -7 -5 -15 -2 -18 9 -9 19 4 14 18 -4 11 -6 11 -12 0z"/>
<path d="M5031 5897 c-8 -10 -7 -19 4 -33 14 -18 14 -17 15 14 0 36 -2 38 -19
19z"/>
<path d="M4972 5500 c0 -19 2 -27 5 -17 2 9 2 25 0 35 -3 9 -5 1 -5 -18z"/>
<path d="M4972 5390 c0 -14 2 -19 5 -12 2 6 2 18 0 25 -3 6 -5 1 -5 -13z"/>
<path d="M5158 5313 c7 -3 16 -2 19 1 4 3 -2 6 -13 5 -11 0 -14 -3 -6 -6z"/>
<path d="M5155 5289 c-10 -15 3 -25 16 -12 7 7 7 13 1 17 -6 3 -14 1 -17 -5z"/>
<path d="M5050 5280 c0 -5 5 -10 10 -10 6 0 10 5 10 10 0 6 -4 10 -10 10 -5 0
-10 -4 -10 -10z"/>
<path d="M4351 5134 c0 -11 3 -14 6 -6 3 7 2 16 -1 19 -3 4 -6 -2 -5 -13z"/>
<path d="M4362 5090 c0 -14 2 -19 5 -12 2 6 2 18 0 25 -3 6 -5 1 -5 -13z"/>
<path d="M4366 5045 c-3 -8 -1 -15 4 -15 6 0 10 7 10 15 0 8 -2 15 -4 15 -2 0
-6 -7 -10 -15z"/>
<path d="M5109 5058 c0 -2 -2 -34 -4 -73 -2 -38 -6 -99 -10 -135 -7 -75 4
-105 30 -79 13 13 14 30 5 131 -5 64 -7 123 -4 131 3 8 1 18 -5 22 -6 3 -11 5
-12 3z"/>
<path d="M5001 4929 c-1 -44 -9 -53 -30 -35 -26 23 -115 45 -135 34 -9 -5 -34
-7 -55 -3 -45 7 -110 -8 -141 -33 -13 -11 -23 -33 -27 -60 l-6 -42 196 0 195
0 7 74 c4 41 5 80 2 88 -3 7 -6 -3 -6 -23z"/>
<path d="M4380 4846 c0 -2 8 -10 18 -17 15 -13 16 -12 3 4 -13 16 -21 21 -21
13z"/>
<path d="M5060 3540 c0 -5 5 -10 10 -10 6 0 10 5 10 10 0 6 -4 10 -10 10 -5 0
-10 -4 -10 -10z"/>
<path d="M6243 3325 c-31 -31 -32 -36 -27 -81 4 -27 14 -62 23 -79 9 -16 16
-34 16 -40 1 -20 28 -106 35 -110 3 -2 22 22 40 53 19 31 42 66 52 78 38 42
31 151 -12 194 -31 31 -88 24 -127 -15z"/>
<path d="M5887 3204 c-14 -14 -7 -35 11 -32 9 2 17 10 17 17 0 16 -18 25 -28
15z"/>
<path d="M6032 3183 c2 -10 10 -18 18 -18 8 0 16 8 18 18 2 12 -3 17 -18 17
-15 0 -20 -5 -18 -17z"/>
<path d="M6783 3125 c0 -33 2 -45 4 -27 2 18 2 45 0 60 -2 15 -4 0 -4 -33z"/>
<path d="M5791 3152 c-5 -9 -7 -39 -4 -65 4 -36 12 -52 29 -64 l24 -15 -21
-17 c-18 -15 -23 -38 -37 -164 -8 -81 -13 -150 -10 -152 3 -3 17 -1 32 4 19 8
26 18 26 36 0 14 5 25 10 25 6 0 10 -11 10 -25 0 -15 9 -31 24 -40 22 -15 28
-15 53 -1 26 13 36 13 98 -4 38 -10 75 -27 82 -36 21 -29 15 2 -18 86 -31 82
-31 100 5 130 14 11 16 8 16 -25 0 -80 9 -25 14 88 2 64 7 120 9 125 11 18 18
110 9 116 -17 10 -40 -4 -46 -30 -7 -27 -74 -74 -108 -74 -23 -1 -23 -1 -3
-16 13 -10 33 -14 57 -11 21 3 41 1 44 -4 3 -5 -4 -9 -15 -9 -12 0 -21 -6 -21
-14 0 -37 -87 -61 -122 -33 -25 19 -27 40 -6 66 l19 25 -28 14 c-43 22 -61 41
-68 71 -7 31 -40 39 -54 13z"/>
<path d="M5968 3143 c7 -3 16 -2 19 1 4 3 -2 6 -13 5 -11 0 -14 -3 -6 -6z"/>
<path d="M5210 3124 c0 -17 22 -14 28 4 2 7 -3 12 -12 12 -9 0 -16 -7 -16 -16z"/>
<path d="M5356 3132 c-2 -4 -1 -14 4 -22 7 -11 12 -12 21 -3 6 6 8 16 5 22 -8
13 -23 14 -30 3z"/>
<path d="M5500 3083 c0 -13 5 -23 10 -23 13 0 13 11 0 30 -8 12 -10 11 -10 -7z"/>
<path d="M6792 3030 c0 -14 2 -19 5 -12 2 6 2 18 0 25 -3 6 -5 1 -5 -13z"/>
<path d="M6532 2390 c0 -19 2 -27 5 -17 2 9 2 25 0 35 -3 9 -5 1 -5 -18z"/>
<path d="M4020 6937 c-36 -18 -60 -73 -59 -132 l2 -50 6 40 6 40 80 0 80 0 6
-40 6 -40 2 48 c1 57 -18 108 -50 131 -28 19 -46 20 -79 3z"/>
<path d="M2797 6924 c-42 -23 -65 -111 -34 -131 17 -11 37 -49 37 -72 0 -10
12 -26 26 -36 22 -14 30 -15 50 -4 13 7 24 21 24 31 0 21 28 69 47 81 12 7 11
26 -3 95 -3 15 -17 29 -39 38 -43 18 -72 17 -108 -2z"/>
<path d="M4310 6838 c-20 -33 -29 -138 -12 -138 8 0 32 -71 32 -98 0 -11 8
-26 18 -36 18 -15 20 -15 35 2 10 10 17 25 17 33 0 18 24 86 33 95 4 4 7 33 7
64 0 74 -25 110 -76 110 -28 0 -38 -6 -54 -32z"/>
<path d="M4595 6778 c-44 -26 -55 -50 -49 -103 4 -27 13 -63 22 -80 16 -30 21
-49 25 -95 2 -19 -6 -28 -34 -42 -42 -20 -94 -98 -84 -127 3 -11 1 -22 -5 -26
-13 -8 6 -45 23 -45 7 0 20 9 29 20 10 11 30 22 45 25 15 3 39 11 53 18 35 17
85 7 119 -25 31 -30 55 -35 68 -15 5 8 10 2 14 -18 6 -27 7 -28 8 -5 0 14 -6
38 -14 54 -8 15 -15 36 -15 46 0 9 -9 25 -20 35 -11 10 -20 23 -20 30 0 23
-37 45 -74 45 -45 0 -44 4 10 85 43 66 50 138 17 195 -17 30 -26 35 -59 37
-21 2 -48 -2 -59 -9z"/>
<path d="M4000 6756 c0 -9 5 -16 10 -16 6 0 10 4 10 9 0 6 -4 13 -10 16 -5 3
-10 -1 -10 -9z"/>
<path d="M4096 6761 c-4 -7 -5 -15 -2 -18 9 -9 19 4 14 18 -4 11 -6 11 -12 0z"/>
<path d="M4885 6642 c-29 -6 -52 -30 -58 -58 -6 -32 10 -104 27 -124 8 -8 16
-31 20 -51 8 -45 33 -70 47 -48 5 8 11 30 14 49 4 19 11 43 16 53 17 31 21
110 7 136 -17 31 -48 49 -73 43z"/>
<path d="M1890 6623 c-43 -16 -60 -45 -60 -107 0 -73 -14 -105 -24 -54 -12 68
-85 105 -144 74 -17 -9 -36 -25 -42 -35 -13 -25 -13 -81 0 -81 6 0 10 6 10 13
0 21 38 39 60 27 10 -6 23 -10 27 -9 27 4 63 -3 63 -12 0 -7 8 -18 17 -24 16
-12 16 -15 2 -32 -20 -24 -39 -69 -39 -93 0 -10 -12 -28 -26 -39 -26 -21 -26
-21 -54 -1 -26 18 -30 19 -64 5 -50 -21 -52 -20 -65 30 -20 80 -69 104 -140
69 -51 -25 -65 -55 -58 -124 7 -60 -4 -110 -23 -110 -5 0 -10 10 -10 23 0 13
-5 28 -12 35 -19 19 -73 14 -102 -9 -24 -19 -26 -27 -22 -63 3 -22 8 -53 12
-68 7 -31 1 -33 -55 -22 -36 7 -42 23 -8 25 17 1 18 2 4 6 -10 3 -31 0 -47 -6
-17 -5 -30 -6 -30 -2 0 5 10 12 23 16 12 3 17 9 10 11 -6 3 -27 -2 -46 -10
-20 -8 -45 -12 -55 -9 -11 2 -23 -1 -27 -8 -5 -7 -4 -10 1 -6 6 3 16 2 23 -2
8 -6 2 -11 -21 -16 -32 -7 -32 -7 -8 -15 l25 -7 -28 -8 c-15 -4 -34 -17 -42
-28 -25 -36 -17 -42 15 -12 29 28 30 28 30 6 0 -12 -11 -33 -25 -47 -26 -26
-32 -44 -15 -44 6 0 10 6 10 13 0 15 49 62 56 54 4 -3 -3 -18 -15 -33 -13 -17
-21 -40 -20 -63 l1 -36 9 32 c13 45 34 56 26 14 -5 -25 -3 -31 8 -29 9 2 21
-8 28 -22 22 -45 97 -36 97 12 0 11 3 18 8 16 64 -29 117 -66 150 -106 51 -60
66 -96 52 -122 -10 -19 -11 -19 -30 0 -11 11 -31 22 -44 26 -15 3 -27 15 -29
27 -4 22 -4 22 -6 0 -1 -16 -7 -23 -22 -23 -11 0 -34 -13 -50 -29 -24 -24 -29
-38 -29 -75 0 -25 3 -46 8 -46 11 0 42 -59 42 -79 0 -10 11 -23 25 -29 l25
-12 1 58 c0 31 5 73 12 92 13 36 32 47 125 70 25 6 42 17 42 25 0 11 8 13 30
9 44 -9 78 17 86 65 5 30 10 38 22 34 12 -5 14 -1 10 21 -4 17 0 29 9 35 27
15 11 46 -26 51 -42 6 -32 16 51 54 67 31 68 31 68 9 0 -27 38 -83 55 -83 17
0 55 56 55 82 0 11 6 15 19 11 17 -4 20 2 25 49 4 29 8 94 10 143 5 112 16
138 70 161 56 24 58 23 61 -11 1 -16 10 -48 19 -69 l17 -40 39 64 c21 34 43
66 49 70 7 4 9 40 4 104 -5 87 -9 99 -27 107 -18 8 -21 17 -18 50 6 63 -4 87
-44 104 -37 15 -67 18 -94 8z m91 -93 c4 -14 7 -19 8 -11 1 8 3 12 6 9 9 -8
-28 -68 -42 -68 -17 0 -53 -49 -53 -74 -1 -19 -2 -19 -11 -3 -6 9 -12 49 -14
87 -5 79 5 92 65 87 27 -1 36 -7 41 -27z m-495 -270 c29 -1 34 -17 19 -60 -12
-33 -15 -76 -13 -172 2 -70 0 -128 -4 -128 -3 0 -13 -3 -22 -6 -13 -5 -16 1
-16 26 0 26 -5 34 -30 43 -24 9 -30 17 -30 40 0 42 17 69 41 62 16 -5 19 -1
19 23 0 16 -7 35 -15 42 -8 7 -15 18 -15 25 0 7 -7 18 -15 25 -24 20 -29 74
-10 104 l17 26 32 -25 c18 -14 37 -25 42 -25z m62 -243 c2 -10 -3 -17 -12 -17
-18 0 -29 16 -21 31 9 14 29 6 33 -14z m-239 -91 c-6 -42 -13 -75 -15 -73 -2
2 -8 25 -13 52 -8 42 -6 52 12 77 11 15 22 26 24 24 2 -1 -2 -38 -8 -80z m-59
22 c0 -14 -15 -9 -31 10 -31 36 -31 44 0 21 17 -12 31 -26 31 -31z m-9 -76
c-4 -44 -5 -45 -12 -17 -4 17 -11 40 -14 52 -6 18 -4 21 12 17 15 -4 17 -13
14 -52z m125 -199 c-11 -11 -19 6 -11 24 8 17 8 17 12 0 3 -10 2 -21 -1 -24z"/>
<path d="M1520 6020 c0 -5 5 -10 10 -10 6 0 10 5 10 10 0 6 -4 10 -10 10 -5 0
-10 -4 -10 -10z"/>
<path d="M5008 6547 c-19 -15 -25 -72 -8 -82 6 -3 14 5 20 19 5 14 14 26 20
26 12 0 62 -30 71 -44 12 -16 29 4 29 33 0 16 -7 34 -15 41 -23 19 -97 23
-117 7z"/>
<path d="M4357 6533 c-2 -5 -5 -24 -5 -44 -1 -21 -2 -41 -4 -45 -1 -5 1 -26 5
-47 16 -77 40 -7 30 86 -5 52 -15 70 -26 50z"/>
<path d="M4034 6486 c-40 -18 -64 -52 -64 -93 0 -25 4 -31 15 -27 8 4 15 12
15 18 0 19 48 38 68 27 9 -4 34 -9 55 -9 25 -1 47 -9 63 -24 24 -23 32 -48 15
-48 -5 0 -17 -15 -25 -32 l-16 -33 31 34 c29 32 31 38 26 88 -4 40 -12 60 -29
75 -45 40 -98 48 -154 24z"/>
<path d="M2118 6414 c-20 -22 -28 -43 -28 -68 0 -22 4 -35 10 -31 6 4 10 -10
10 -34 0 -50 27 -81 70 -81 43 0 70 31 70 81 0 24 4 38 10 34 6 -4 10 9 10 33
0 48 -33 83 -82 85 -18 1 -35 5 -38 8 -3 3 -17 -9 -32 -27z m46 -61 c8 -9 14
-10 51 -12 23 -1 25 -5 25 -46 0 -42 -11 -58 -25 -35 -3 6 -19 10 -35 10 -16
0 -32 -4 -35 -10 -3 -5 -10 -10 -16 -10 -10 0 -13 93 -2 103 9 9 28 9 37 0z
m42 -108 c21 -16 19 -17 -26 -17 -16 0 -33 1 -37 1 -9 2 27 31 37 31 3 0 15
-7 26 -15z"/>
<path d="M3550 6415 c0 -8 7 -15 15 -15 8 0 15 7 15 15 0 8 -7 15 -15 15 -8 0
-15 -7 -15 -15z"/>
<path d="M3700 6405 c0 -8 7 -15 15 -15 8 0 15 7 15 15 0 8 -7 15 -15 15 -8 0
-15 -7 -15 -15z"/>
<path d="M2894 6381 c-32 -19 -43 -55 -48 -148 -1 -26 -4 -29 -15 -20 -12 10
-12 9 -1 -10 8 -12 17 -20 20 -18 3 2 12 -17 20 -43 12 -43 14 -45 20 -21 4
14 19 43 33 65 21 32 26 52 26 110 1 41 -4 77 -12 87 -11 16 -14 16 -43 -2z"/>
<path d="M1610 6371 c0 -5 9 -19 20 -32 l19 -24 -12 33 c-10 30 -27 44 -27 23z"/>
<path d="M3980 6320 c0 -15 31 -60 41 -60 4 0 -1 16 -12 35 -22 36 -29 42 -29
25z"/>
<path d="M3940 6279 c0 -11 4 -18 10 -14 5 3 7 12 3 20 -7 21 -13 19 -13 -6z"/>
<path d="M4550 6260 c0 -15 5 -20 18 -18 9 2 17 10 17 18 0 8 -8 16 -17 18
-13 2 -18 -3 -18 -18z"/>
<path d="M4700 6265 c-10 -12 -9 -16 5 -21 23 -9 40 10 22 25 -11 9 -17 8 -27
-4z"/>
<path d="M4630 6220 c0 -5 5 -10 10 -10 6 0 10 5 10 10 0 6 -4 10 -10 10 -5 0
-10 -4 -10 -10z"/>
<path d="M4770 6214 c0 -18 -49 -74 -66 -74 -8 0 -14 -4 -14 -10 0 -5 -12 -10
-27 -10 -20 0 -24 -3 -16 -11 7 -7 41 -13 77 -15 82 -4 94 6 92 78 -1 48 -3
53 -23 54 -13 1 -23 -5 -23 -12z"/>
<path d="M2790 6199 c0 -5 5 -7 10 -4 6 3 10 8 10 11 0 2 -4 4 -10 4 -5 0 -10
-5 -10 -11z"/>
<path d="M2938 6173 c-18 -21 -31 -43 -25 -43 2 0 16 14 30 30 15 17 23 30 19
30 -5 0 -16 -8 -24 -17z"/>
<path d="M3759 6105 c-10 -16 5 -171 16 -165 9 5 9 24 -3 120 -4 30 -10 51
-13 45z"/>
<path d="M5692 6021 c2 -7 7 -12 11 -12 12 1 9 15 -3 20 -7 2 -11 -2 -8 -8z"/>
<path d="M5817 6014 c-8 -8 1 -24 14 -24 5 0 9 7 9 15 0 15 -12 20 -23 9z"/>
<path d="M5878 5969 c-16 -11 -28 -27 -28 -35 0 -7 -9 -19 -20 -26 -11 -7 -20
-18 -20 -25 0 -7 9 -17 20 -23 11 -6 20 -17 20 -25 0 -8 11 -22 25 -31 14 -9
25 -26 25 -38 0 -24 35 -86 49 -86 15 0 52 52 58 83 3 15 14 33 24 40 22 16
43 97 28 112 -5 5 -9 16 -9 25 0 45 -123 66 -172 29z"/>
<path d="M3606 5947 c-22 -22 -46 -100 -46 -149 0 -11 10 -36 22 -56 l21 -35
-29 -26 -29 -26 7 -105 c4 -58 7 -130 7 -160 -1 -30 -1 -82 -1 -114 0 -44 -5
-64 -19 -79 -10 -12 -20 -17 -21 -11 -1 5 -5 -27 -8 -71 l-6 -80 -2 111 -2
111 -68 -5 c-105 -7 -112 0 -113 106 -1 66 -3 79 -9 54 -13 -54 -19 -250 -11
-330 6 -59 4 -72 -7 -67 -7 3 -18 5 -24 5 -7 0 -9 29 -5 88 3 48 3 79 0 70 -3
-13 -15 -18 -44 -18 -21 0 -39 5 -39 10 0 6 -40 10 -100 10 -103 0 -105 -1
-101 -42 2 -20 -38 -35 -49 -18 -5 8 -9 5 -12 -8 -4 -13 -20 -23 -54 -31 -38
-9 -54 -19 -72 -46 -12 -19 -45 -50 -72 -67 l-50 -33 0 -65 c0 -88 -26 -133
-73 -128 -26 2 -31 7 -29 23 2 11 5 52 8 90 5 62 4 67 -8 45 -9 -16 -30 -30
-61 -40 -35 -11 -45 -19 -41 -30 10 -22 31 -136 39 -206 7 -61 6 -61 -20 -68
-15 -4 -29 -5 -31 -3 -2 2 -9 42 -15 88 -15 109 -20 118 -48 90 -18 -18 -33
-21 -100 -21 -70 0 -80 -2 -94 -22 l-15 -23 -22 28 c-13 16 -31 27 -46 27 -22
0 -23 2 -17 48 6 53 24 78 68 96 28 12 32 10 57 -16 20 -21 35 -28 65 -28 42
0 83 23 83 46 0 12 7 14 28 10 38 -9 64 13 67 55 2 24 -3 40 -17 53 -19 17
-19 20 -4 28 26 14 11 66 -30 107 -29 29 -44 36 -96 42 -37 4 -70 3 -81 -2
-10 -6 -49 -13 -88 -16 -71 -6 -96 -23 -34 -23 19 0 35 -4 35 -10 0 -5 -13
-10 -30 -10 -32 0 -41 -16 -12 -23 15 -4 15 -5 -2 -6 -15 -1 -17 -7 -12 -38
14 -89 13 -105 -11 -116 -30 -14 -38 -38 -36 -126 2 -60 -2 -79 -17 -99 -20
-24 -27 -72 -12 -72 4 0 13 9 20 20 10 17 19 19 59 14 27 -4 56 -14 66 -24 18
-16 18 -18 -2 -51 -12 -19 -21 -42 -21 -51 0 -9 -10 -24 -22 -32 -19 -14 -25
-14 -45 -1 -19 13 -30 13 -73 2 -79 -20 -82 -26 -82 -168 0 -156 -1 -149 20
-149 15 0 17 -9 14 -75 l-4 -76 -44 -22 c-45 -21 -53 -34 -33 -54 10 -10 38
-197 39 -260 0 -12 11 -35 25 -51 14 -17 25 -38 25 -49 0 -10 5 -24 12 -31 20
-20 -7 -14 -36 9 -21 17 -26 18 -26 5 0 -10 -9 -16 -25 -16 -22 0 -25 -3 -19
-24 3 -13 1 -27 -5 -30 -7 -4 -11 1 -11 13 0 18 -6 21 -37 21 -21 0 -51 -7
-68 -16 -34 -18 -84 -13 -122 11 l-25 17 4 175 3 175 -27 23 c-16 13 -28 29
-28 34 0 9 78 49 98 51 4 0 8 -9 8 -20 1 -11 9 -40 19 -66 l17 -45 34 53 c50
80 51 81 80 62 32 -22 39 -13 26 33 -12 43 -21 85 -15 66 10 -28 25 -12 20 20
-4 17 -9 65 -13 105 -7 72 -12 83 -32 59 -8 -9 -7 -30 3 -72 20 -85 18 -96 -7
-45 -18 35 -29 46 -52 48 -42 5 -70 -4 -100 -34 -22 -22 -25 -33 -20 -61 6
-32 6 -33 -29 -33 -29 0 -37 -5 -45 -27 -9 -24 -11 -17 -12 42 0 50 -7 83 -23
115 l-22 45 -62 4 c-60 3 -64 2 -97 -31 -25 -25 -36 -47 -41 -82 l-8 -49 -63
6 c-36 2 -76 12 -90 22 l-27 17 6 -53 c3 -30 9 -66 12 -80 6 -23 3 -27 -22
-32 -45 -10 -73 32 -74 108 -1 132 -11 270 -21 282 -8 10 -6 13 6 13 9 0 16 8
16 20 0 13 -7 20 -20 20 -25 0 -72 23 -88 43 -10 12 -9 16 6 19 21 6 40 76 24
87 -4 3 -11 14 -15 24 -3 9 -13 17 -21 17 -8 0 -23 11 -34 25 -12 15 -29 25
-43 24 l-24 -1 25 -8 c18 -6 20 -8 7 -9 -11 -1 -33 -7 -50 -15 -18 -8 -40 -17
-51 -20 -10 -4 -16 -12 -13 -20 3 -8 1 -16 -5 -18 -18 -6 2 -70 23 -75 29 -8
24 -17 -40 -62 -67 -46 -121 -109 -121 -139 0 -10 10 -31 21 -46 26 -33 21
-40 -21 -31 -20 4 -38 18 -51 38 l-19 32 -2 -45 c-1 -37 -2 -39 -5 -12 -3 23
-9 32 -23 32 -26 0 -29 -38 -8 -140 9 -47 17 -88 18 -92 0 -5 -24 -8 -52 -8
-51 1 -55 3 -97 51 -43 49 -44 51 -32 87 22 65 -22 132 -85 132 -41 0 -94 -33
-94 -59 0 -31 31 -108 49 -125 17 -16 16 -18 -24 -59 l-42 -42 -7 -95 c-3 -53
-13 -127 -21 -165 -8 -39 -15 -81 -15 -94 0 -23 1 -23 34 10 18 19 53 45 77
57 l44 24 -26 -24 c-15 -12 -29 -30 -32 -39 -8 -25 13 -101 35 -125 l19 -22
-47 -16 c-26 -9 -49 -16 -51 -16 -2 0 -4 12 -4 28 -1 20 -2 22 -6 7 -3 -11
-11 -27 -19 -36 -8 -9 -12 -23 -8 -32 3 -8 1 -24 -5 -35 -19 -35 -41 -166 -41
-241 0 -66 3 -78 25 -101 19 -20 30 -52 49 -145 40 -196 40 -195 59 -45 10 72
22 140 27 150 5 9 24 23 42 30 69 25 78 30 78 40 0 5 -14 17 -30 25 -17 9 -36
28 -43 43 -6 15 -17 33 -24 40 -22 23 -14 40 22 46 19 4 58 23 86 42 43 28 54
32 61 21 11 -20 101 -77 121 -77 40 0 1 149 -49 191 -7 6 -11 16 -8 21 3 5 -1
17 -9 26 -8 9 -17 26 -20 37 -4 15 -5 13 -6 -7 -1 -34 -5 -34 -42 -4 -15 13
-34 26 -41 28 -8 3 -3 16 15 40 35 45 36 90 2 116 -38 30 -30 35 11 7 45 -31
50 -31 58 -2 6 21 7 20 21 -12 8 -18 15 -48 15 -67 0 -46 18 -52 22 -7 l3 38
75 1 c80 1 90 -4 90 -48 0 -26 1 -26 53 -22 67 6 81 -7 61 -55 -13 -31 -17
-33 -51 -29 -21 3 -46 8 -55 12 -13 6 -18 4 -18 -8 0 -9 -11 -28 -25 -42 -29
-29 -30 -37 -9 -58 25 -26 40 -19 53 24 6 22 16 40 20 40 15 0 31 -60 32 -114
0 -28 4 -73 9 -101 4 -29 4 -51 -1 -53 -5 -2 -9 -13 -8 -25 0 -12 3 -16 6 -9
6 16 38 15 52 -2 10 -12 16 -12 42 2 19 11 32 13 37 7 4 -6 19 -16 34 -22 27
-12 28 -15 28 -89 0 -66 -3 -80 -25 -106 -22 -26 -65 -141 -65 -174 0 -11 -17
-14 -70 -14 l-70 0 0 125 c0 69 -3 125 -7 125 -5 0 -7 -63 -5 -140 l3 -140
-25 0 -26 0 0 110 0 110 -26 0 c-25 0 -26 -2 -22 -50 l3 -51 -35 3 c-31 3 -35
6 -38 36 -4 37 -22 34 -22 -4 0 -17 -5 -24 -19 -24 -11 0 -23 -4 -26 -10 -3
-5 -17 -10 -30 -10 -13 0 -30 -7 -37 -16 -7 -8 -21 -23 -30 -32 -10 -9 -18
-24 -18 -33 0 -34 -12 -49 -40 -49 -16 0 -32 4 -35 10 -3 5 2 48 11 96 15 77
16 87 1 101 -14 14 -16 10 -22 -43 -21 -166 -31 -219 -43 -217 -6 2 -12 -4
-12 -13 0 -8 -4 -12 -10 -9 -5 3 -10 14 -10 23 0 14 -7 17 -41 14 -38 -4 -61
-24 -45 -40 4 -3 28 -9 54 -12 57 -6 65 -27 28 -71 -14 -17 -26 -36 -26 -44 0
-23 32 -26 67 -5 l34 20 11 -30 c7 -22 16 -30 34 -30 19 0 25 8 34 38 15 58
91 85 118 42 9 -15 23 -20 58 -20 54 0 84 14 84 39 0 17 3 17 32 7 18 -6 39
-15 46 -19 8 -6 12 -1 12 17 0 14 5 28 10 31 6 4 10 -17 10 -54 0 -52 -3 -61
-18 -61 -24 0 -92 -48 -92 -65 0 -11 -19 -15 -82 -17 l-83 -3 -32 -60 c-18
-33 -33 -68 -33 -77 0 -14 -6 -16 -30 -11 -26 5 -30 3 -30 -16 0 -11 5 -21 10
-21 6 0 10 4 10 8 0 5 7 9 15 9 11 0 15 -13 15 -54 0 -52 1 -53 29 -53 21 0
30 -6 35 -22 9 -37 7 -78 -5 -78 -13 0 -10 -26 15 -173 12 -71 13 -98 4 -139
-13 -56 -4 -70 42 -66 23 3 25 7 23 48 -1 25 -2 141 -3 258 -3 248 -3 247 93
293 l62 29 12 -27 c6 -16 21 -37 33 -48 29 -26 49 -12 77 56 12 29 26 55 32
57 6 2 11 13 12 25 0 20 1 20 12 5 10 -15 12 -15 22 5 9 18 78 66 95 67 3 0
10 -13 16 -28 10 -25 8 -28 -10 -30 -11 0 -28 -11 -37 -23 -12 -16 -18 -18
-21 -8 -2 7 -6 -51 -7 -130 -2 -123 -5 -147 -21 -170 -11 -14 -21 -43 -22 -64
-3 -46 -12 -52 -100 -62 -79 -8 -135 6 -149 39 -6 14 -7 4 -3 -33 4 -30 12
-69 20 -87 15 -36 14 -39 -33 -48 -28 -6 -33 -13 -43 -58 -13 -51 -6 -67 26
-68 7 0 8 -23 2 -72 -8 -76 -3 -87 37 -88 49 -1 63 -11 75 -58 10 -41 9 -51
-11 -93 -35 -76 -9 -103 51 -53 30 26 31 28 24 85 -7 66 0 109 20 109 19 0 38
-72 30 -117 -5 -32 -2 -42 20 -62 16 -15 37 -24 56 -23 l30 1 0 -123 c0 -121
0 -123 -25 -134 -42 -19 -32 -42 19 -42 l44 0 7 190 c4 105 12 190 17 190 14
0 16 -17 23 -202 l7 -178 44 0 c51 0 61 23 19 42 l-25 11 0 164 c0 144 2 163
16 163 14 0 16 -7 10 -42 -4 -24 -9 -71 -13 -106 -5 -59 -4 -64 16 -69 18 -5
21 -13 21 -58 0 -29 6 -70 13 -91 8 -22 17 -54 20 -72 6 -30 3 -35 -28 -54
-29 -17 -33 -23 -23 -35 11 -14 36 -14 83 2 12 3 28 0 40 -9 20 -15 20 -15 -3
-57 -28 -48 -20 -64 28 -54 19 4 35 16 42 31 6 13 15 24 20 24 4 0 9 37 10 83
l2 82 3 -68 c5 -82 -12 -244 -27 -261 -26 -32 29 -35 70 -4 28 20 30 27 30 84
0 33 5 86 11 115 12 62 22 183 21 249 -3 132 0 160 19 218 20 59 45 99 57 88
2 -3 -1 -12 -8 -21 -11 -13 -9 -15 11 -16 13 -1 30 -1 38 1 11 1 12 -10 7 -57
-4 -32 -8 -74 -9 -93 -2 -38 -4 -38 76 -27 l48 7 -3 -58 -3 -57 -75 -3 -75 -3
-24 -55 -24 -55 16 -93 c10 -51 17 -118 17 -150 0 -50 3 -61 25 -78 21 -17 25
-28 25 -75 0 -40 -6 -63 -22 -85 -20 -29 -20 -31 -4 -44 23 -16 57 -4 72 24 6
12 18 30 27 39 13 15 15 37 11 133 -3 63 -6 117 -6 120 0 3 0 41 1 84 2 145
12 71 15 -118 3 -142 7 -191 18 -204 8 -9 19 -29 26 -44 6 -16 18 -28 27 -28
21 0 19 -13 -5 -35 -23 -21 -27 -73 -6 -81 24 -9 54 14 83 63 23 41 28 64 39
197 13 153 29 236 46 236 18 0 27 -54 37 -222 10 -167 29 -265 61 -302 5 -7 7
-21 4 -32 -4 -15 2 -23 21 -32 14 -7 32 -12 40 -12 9 0 16 -16 20 -44 5 -33 2
-52 -14 -84 -18 -35 -19 -42 -5 -52 12 -11 19 -9 38 9 20 19 23 31 23 87 -1
60 13 97 30 80 4 -4 7 -38 7 -76 -1 -60 2 -72 22 -91 19 -18 26 -20 38 -10 12
11 12 18 -4 54 -22 52 -17 107 11 107 11 0 19 6 19 14 0 8 9 18 21 21 18 6 20
12 15 39 -4 17 -9 71 -13 120 -5 76 -9 89 -25 94 -13 3 -17 10 -12 21 12 26
23 325 12 308 -4 -7 -8 -53 -8 -104 0 -84 -2 -93 -22 -107 -29 -21 -117 -21
-146 0 -20 14 -22 23 -22 107 0 51 -4 97 -8 104 -10 17 -3 -257 8 -291 11 -33
12 -31 -16 -40 -16 -5 -24 1 -37 29 -13 28 -17 64 -17 164 0 150 8 182 56 207
20 11 34 26 34 37 0 30 21 14 35 -26 7 -20 18 -44 25 -52 11 -14 15 -14 31 1
10 9 22 32 25 51 4 19 13 37 20 40 17 6 28 63 19 103 -5 22 -17 36 -40 47 -28
13 -34 22 -38 57 -3 31 1 49 16 71 l20 30 -21 -19 c-17 -15 -22 -16 -22 -5 0
8 6 23 14 34 15 23 19 135 6 170 -8 22 -12 23 -40 12 -18 -7 -33 -21 -36 -34
-7 -28 -19 -29 -67 -3 -47 25 -47 26 -47 -9 0 -51 -51 -80 -80 -46 -7 8 -18
39 -25 69 -21 90 -2 136 55 136 32 0 50 -17 50 -48 0 -13 4 -20 10 -17 13 8
13 71 0 96 -6 11 -25 25 -43 32 l-32 13 44 32 c24 18 50 32 57 32 8 0 20 -15
28 -34 8 -18 18 -36 24 -40 12 -7 37 21 46 52 9 27 16 27 66 2 30 -16 42 -29
51 -60 7 -22 15 -40 19 -40 3 0 6 -16 6 -35 0 -19 -4 -35 -8 -35 -4 0 -8 -9
-8 -20 0 -18 7 -20 72 -20 56 0 69 -3 60 -12 -7 -7 -12 -23 -12 -36 0 -23 -2
-24 -43 -19 -24 3 -51 9 -60 13 -14 5 -17 0 -17 -34 0 -23 -5 -53 -10 -68 -7
-18 -7 -30 0 -39 8 -9 7 -15 -2 -18 -9 -4 -7 -6 4 -6 22 -1 32 15 13 23 -8 3
-15 10 -15 16 0 12 51 -12 68 -32 6 -8 18 -88 27 -178 21 -199 25 -208 111
-203 92 4 157 57 170 138 5 37 11 45 36 54 l31 11 -6 -48 c-9 -74 -24 -98
-104 -157 -65 -48 -80 -55 -121 -55 -26 0 -60 7 -76 15 -15 8 -32 12 -37 9
-10 -6 -12 -351 -2 -432 l6 -53 46 3 46 3 -2 115 c-2 78 3 144 15 205 l17 90
14 -91 c11 -76 11 -94 0 -113 -12 -20 -12 -24 5 -36 18 -13 18 -20 9 -82 -13
-82 -6 -93 52 -93 l43 0 5 82 c10 157 27 293 45 363 l19 70 7 -115 c4 -63 9
-141 13 -172 l6 -58 59 0 c73 0 87 20 41 59 l-30 26 -6 255 c-4 140 -4 265 -1
278 10 34 27 26 19 -9 -5 -23 -4 -30 5 -24 9 6 11 -16 9 -91 l-4 -99 43 -3
c44 -3 55 9 25 27 -10 6 -13 11 -7 11 7 0 14 31 19 78 10 114 13 123 40 116
35 -9 43 16 12 41 -32 25 -34 49 -7 90 113 170 167 240 190 245 37 8 84 106
105 221 21 114 15 148 -32 194 -20 19 -34 37 -32 39 2 2 13 8 25 14 11 6 33
29 48 51 35 50 30 79 -20 118 -43 32 -93 36 -125 7 -19 -17 -21 -26 -15 -77 5
-54 4 -57 -16 -57 -12 0 -48 -7 -80 -16 -76 -22 -77 -42 -4 -79 27 -14 43 -29
49 -50 11 -38 1 -297 -13 -348 -12 -39 -43 -55 -32 -15 4 16 2 19 -8 13 -10
-6 -11 -2 -7 16 3 13 8 69 11 124 l5 100 -12 -112 c-7 -61 -15 -114 -19 -118
-3 -4 -31 -7 -62 -8 -65 -2 -58 23 -56 -198 l1 -137 -32 -11 c-30 -10 -31 -10
-27 14 5 23 2 25 -32 25 -25 0 -43 7 -56 21 -10 11 -33 27 -51 34 -33 14 -33
14 -33 84 0 82 -6 101 -31 101 -15 0 -17 4 -10 23 5 12 18 45 29 72 17 44 19
58 10 113 -6 34 -8 65 -4 69 11 11 16 -3 22 -54 5 -40 11 -52 34 -65 27 -15
30 -15 44 1 9 10 16 27 16 39 0 12 10 43 21 67 17 37 20 56 15 98 -10 78 -9
89 14 116 44 56 53 73 52 103 0 17 -6 36 -11 41 -16 16 -13 37 4 37 8 0 15 6
15 13 0 7 8 22 18 33 15 15 29 18 74 16 54 -4 56 -5 74 -44 17 -38 19 -39 28
-19 13 29 -7 85 -45 129 -16 18 -29 30 -29 26 0 -3 -7 -1 -15 6 -12 10 -15 9
-15 -5 0 -14 -3 -15 -14 -6 -11 9 -20 4 -45 -24 -29 -34 -31 -34 -36 -13 -2
13 -6 40 -7 62 -3 38 -4 39 -73 66 -38 15 -73 26 -77 23 -5 -2 -8 -14 -8 -27
0 -28 -18 -46 -46 -46 -25 0 -54 34 -54 63 0 14 -5 17 -20 12 -26 -8 -26 10 0
53 11 18 20 41 20 52 0 13 10 24 27 31 38 14 73 -3 73 -36 0 -14 5 -25 10 -25
13 0 13 76 0 100 -5 10 -23 21 -40 25 -18 4 -37 19 -49 38 -29 47 -134 143
-139 128 -3 -8 1 -17 8 -21 8 -5 10 -24 6 -61 -3 -30 -9 -109 -12 -176 l-6
-123 -44 0 c-23 0 -46 5 -49 10 -10 15 -25 2 -25 -22 0 -25 -73 -98 -99 -98
-35 0 -32 -15 6 -26 41 -12 47 -37 15 -61 -35 -28 -122 -4 -122 33 0 8 -7 14
-15 14 -8 0 -15 4 -15 9 0 5 8 7 18 4 23 -6 55 28 34 35 -31 10 -82 65 -82 88
0 13 -3 23 -7 23 -23 -4 -23 3 -1 24 37 32 65 47 91 47 13 0 28 5 33 10 16 16
88 -4 124 -34 35 -29 46 -32 53 -13 5 14 -9 204 -19 255 -4 22 -1 40 10 57 33
50 10 48 -46 -5 l-43 -40 -5 109 c-3 60 -7 112 -10 114 -3 3 -4 -31 -2 -76 2
-77 2 -80 -12 -57 -20 32 -20 4 -1 -30 34 -60 5 -127 -52 -122 -26 3 -34 9
-43 37 -11 33 -12 155 -3 202 4 16 14 23 36 26 l32 4 -32 1 c-19 1 -33 7 -33
15 0 6 20 41 44 77 l45 65 -30 3 c-23 3 -29 7 -24 21 3 9 -2 68 -10 131 -8 62
-15 117 -15 121 0 6 -57 29 -106 43 -20 6 -22 1 -33 -71 -12 -84 -20 -103 -23
-57 -1 16 -2 37 -3 46 0 9 -4 20 -7 24 -4 4 2 18 12 32 11 13 20 34 20 46 0
27 57 74 62 51 2 -11 13 -9 53 10 46 22 51 23 67 8 17 -15 20 -15 38 2 19 18
21 17 58 -1 20 -10 45 -25 54 -33 15 -12 18 -10 23 15 4 16 13 52 21 79 7 28
16 77 20 109 l7 58 -54 -41 c-30 -22 -57 -41 -61 -41 -21 0 -4 44 28 73 29 26
37 42 41 80 5 43 9 49 39 62 31 13 34 18 33 52 -1 21 -4 52 -8 68 -5 21 -2 33
8 41 13 10 13 19 2 67 -10 41 -11 72 -4 123 6 38 11 106 12 152 1 46 6 93 10
105 7 19 10 15 15 -23 7 -50 10 -335 5 -390 -4 -32 -2 -35 24 -38 46 -5 55 10
43 68 -16 78 4 174 45 216 29 30 31 35 21 64 -14 40 -4 117 15 125 12 4 14 0
10 -16 -3 -12 2 -28 13 -39 14 -14 17 -28 13 -62 -5 -40 -2 -47 22 -66 30 -24
51 -27 74 -13 12 8 10 17 -14 53 -36 53 -37 95 -4 136 28 35 49 43 73 30 9 -5
31 -8 49 -6 30 3 32 5 35 49 2 37 8 49 27 59 13 7 27 20 31 29 4 9 10 90 14
181 l6 165 5 -125 c2 -69 4 -148 4 -177 0 -28 3 -55 8 -59 4 -4 7 -22 7 -41 0
-21 5 -33 13 -33 20 0 67 57 67 80 0 17 7 20 43 20 l43 0 12 148 c16 189 22
222 37 222 8 0 17 -58 30 -185 l18 -186 81 3 c93 3 107 20 44 51 -36 18 -38
21 -38 68 0 48 1 49 30 49 28 0 30 2 30 39 0 21 3 66 6 100 7 58 8 61 34 61
25 0 28 -3 33 -53 3 -29 3 -92 0 -140 -4 -66 -3 -87 7 -87 7 0 2 -9 -11 -19
l-24 -19 27 -7 c42 -11 63 -2 64 25 1 14 2 42 3 63 1 37 2 38 34 35 32 -3 32
-4 37 -63 l5 -60 35 3 c19 1 58 5 86 8 l52 6 6 96 c10 136 13 151 35 145 22
-6 29 -35 38 -156 l6 -88 76 3 c43 2 76 7 75 13 0 6 -19 19 -42 30 -41 19 -42
20 -42 72 0 29 -1 56 -2 61 -2 4 9 8 23 10 l27 3 7 140 c6 124 9 139 25 139
18 0 29 -25 31 -70 0 -23 1 -23 8 -5 5 11 6 63 4 115 -5 81 -9 101 -32 135
l-26 41 -3 -65 c-1 -42 -8 -71 -17 -80 -13 -14 -15 -11 -16 19 0 29 -2 32 -9
15 -12 -26 -11 366 0 406 11 39 -14 52 -36 20 -37 -53 -105 -61 -159 -20 -31
25 -32 47 -2 51 25 3 36 43 18 61 -6 6 -11 19 -11 29 0 10 -4 18 -10 18 -19 0
-10 36 18 69 28 34 28 34 59 17 18 -9 39 -16 48 -16 8 0 15 -6 15 -14 0 -8 5
-16 12 -18 8 -3 6 -18 -10 -51 -28 -60 -29 -97 -2 -97 14 0 20 7 20 23 0 12 7
31 15 41 31 41 10 173 -33 206 -36 29 -106 27 -136 -3z m251 -764 c-3 -10 -5
-4 -5 12 0 17 2 24 5 18 2 -7 2 -21 0 -30z m-173 -189 c3 -8 -2 -30 -11 -47
-19 -37 -28 -23 -19 29 7 36 20 44 30 18z m-151 -101 c4 -3 14 0 23 8 15 13
16 6 12 -84 -3 -71 -8 -101 -18 -108 -37 -23 -40 -13 -39 129 1 88 4 124 9 99
4 -20 10 -40 13 -44z m-1203 48 c0 -15 -49 -22 -70 -11 -30 16 -25 20 25 20
25 0 45 -4 45 -9z m1109 -79 c1 -62 -23 -50 -27 13 -4 59 7 92 18 55 5 -14 8
-44 9 -68z m-800 -239 c-1 -57 -1 -58 -10 -18 -11 55 -11 75 1 75 6 0 9 -25 9
-57z m-1795 -63 c14 -5 26 -17 26 -25 0 -9 4 -14 9 -11 5 4 4 -10 -2 -29 -9
-30 -8 -37 8 -48 14 -11 16 -22 11 -53 -4 -21 -11 -91 -15 -154 -5 -63 -9
-116 -10 -118 -1 -2 -22 -2 -48 0 l-48 3 -6 110 c-3 61 -10 130 -14 154 -7 37
-5 46 10 57 11 8 16 21 12 34 -7 29 11 90 28 90 7 0 25 -4 39 -10z m1736 -124
c0 -3 -4 -8 -10 -11 -5 -3 -10 -1 -10 4 0 6 5 11 10 11 6 0 10 -2 10 -4z
m-320 -272 c0 -21 -19 -54 -31 -54 -6 0 -8 9 -3 23 3 12 3 18 -2 14 -5 -5 -12
-34 -15 -65 l-6 -57 -2 71 c0 39 2 74 6 77 13 14 53 7 53 -9z m-1538 -23 c6
-10 18 -17 25 -14 14 6 18 -9 6 -21 -5 -4 -8 -42 -9 -84 0 -42 -4 -93 -9 -112
l-8 -35 -9 35 c-5 19 -9 43 -9 53 0 12 -8 17 -26 17 -16 0 -23 -4 -20 -13 2
-7 2 -30 -2 -52 l-7 -40 -26 78 c-15 43 -25 84 -22 92 3 7 -2 28 -11 45 -9 18
-12 30 -7 26 5 -3 14 6 20 19 10 21 18 25 57 25 33 0 48 -5 57 -19z m1376 -19
c2 -12 7 -20 12 -17 5 3 3 -6 -5 -21 -8 -15 -11 -39 -8 -54 5 -28 -15 -77 -40
-99 -24 -20 -56 43 -61 121 -5 71 -1 83 29 91 42 11 70 3 73 -21z m-1574 2 c3
-8 2 -12 -4 -9 -6 3 -10 10 -10 16 0 14 7 11 14 -7z m14 -66 c10 -37 1 -54
-22 -45 -21 8 -22 77 -1 77 8 0 18 -15 23 -32z m887 -72 c14 3 25 2 25 -4 0
-15 -50 -24 -64 -13 -7 6 -16 8 -19 4 -4 -3 -7 1 -7 11 0 14 4 15 20 6 11 -6
31 -8 45 -4z m-340 -30 c38 -18 59 -33 67 -53 17 -39 14 -343 -3 -375 -7 -13
-16 -43 -19 -67 -4 -32 -12 -48 -30 -60 -20 -13 -23 -13 -15 -1 12 20 24 110
13 104 -4 -3 -8 14 -8 38 0 58 -19 85 -48 69 -12 -6 -22 -18 -22 -26 0 -8 -9
-15 -20 -15 -11 0 -20 -4 -20 -10 0 -20 -31 -9 -39 13 -10 24 4 113 20 132 5
7 0 11 -13 12 -12 1 -24 6 -27 10 -15 20 -49 31 -60 20 -17 -17 -13 -38 19
-100 17 -32 30 -67 30 -77 0 -22 -39 -38 -50 -21 -3 7 -13 9 -21 7 -8 -3 -22
1 -33 9 -16 12 -17 18 -7 43 6 15 13 62 14 103 2 41 6 80 10 86 9 14 83 53
103 53 8 0 26 -11 39 -24 l25 -25 9 37 c6 20 13 61 17 90 4 28 8 52 10 52 2 0
28 -11 59 -24z m454 -278 c0 -96 -10 -97 -24 -4 -5 32 -3 55 5 72 8 13 15 24
17 24 2 0 3 -42 2 -92z m-196 -142 c25 -22 37 -56 19 -56 -11 0 -34 -57 -30
-77 2 -12 19 -21 54 -29 29 -6 56 -14 61 -17 6 -4 5 -31 -4 -72 -12 -57 -11
-69 2 -98 32 -65 40 -77 52 -77 15 0 17 46 3 55 -5 3 -10 13 -10 22 0 9 -7 24
-15 34 -14 15 -14 18 0 32 8 9 15 20 15 26 0 5 9 16 20 24 17 12 25 11 64 -7
58 -27 70 -46 50 -85 -8 -17 -19 -45 -24 -62 -8 -29 -7 -32 20 -42 17 -6 30
-14 30 -18 0 -18 -64 -59 -91 -59 -38 0 -85 24 -99 51 -6 11 -17 18 -23 16
-16 -5 -9 -152 9 -196 8 -18 12 -43 10 -55 -18 -87 -18 -85 22 -89 l37 -4 -43
-1 -43 -2 5 -105 c3 -96 2 -105 -14 -105 -44 0 -69 31 -35 44 27 10 19 72 -14
108 -23 26 -36 33 -69 33 -22 0 -51 -7 -65 -14 -40 -21 -63 -110 -34 -128 8
-4 17 -16 20 -27 6 -14 4 -17 -9 -12 -8 3 -20 6 -26 6 -19 0 -3 141 21 185 18
34 21 49 15 108 l-7 67 81 0 80 0 4 73 c3 39 8 80 12 90 7 14 3 17 -28 17 -25
0 -36 4 -36 15 0 12 -13 15 -55 15 -44 0 -55 -3 -55 -16 0 -13 -9 -15 -45 -12
-41 3 -44 1 -48 -22 -2 -14 -5 -2 -6 25 -1 52 -22 104 -47 118 -9 5 -14 25
-14 56 0 42 4 52 35 80 19 17 35 40 35 50 0 17 4 18 36 10 57 -16 66 -10 46
31 -9 19 -20 37 -24 38 -13 6 -9 32 6 48 8 8 25 14 38 14 13 0 30 5 38 10 24
15 43 12 73 -14z m254 -108 c-3 -8 -6 -5 -6 6 -1 11 2 17 5 13 3 -3 4 -12 1
-19z m183 -138 c-5 -3 -8 -12 -8 -20 1 -8 0 -31 -1 -50 l-3 -35 -14 45 c-8 25
-17 62 -20 83 l-7 37 31 -27 c16 -16 26 -30 22 -33z m-724 -186 c13 -3 24 -7
24 -8 0 -1 -7 -25 -15 -53 -11 -37 -14 -86 -12 -177 l3 -125 -52 -7 c-67 -8
-78 -1 -70 45 20 126 33 154 61 131 29 -24 18 48 -15 96 -40 60 -46 87 -24
123 l18 30 29 -25 c16 -13 39 -27 53 -30z m654 -50 c6 -14 10 -81 10 -149 0
-125 -3 -135 -41 -135 -10 0 -12 251 -3 288 8 29 22 28 34 -4z m150 -182 c0
-9 -7 -6 -20 11 -11 14 -20 29 -20 33 0 4 9 -1 20 -11 11 -10 20 -25 20 -33z
m77 -4 c-2 -13 -4 -5 -4 17 -1 22 1 32 4 23 2 -10 2 -28 0 -40z m-158 39 c-2
-1 -13 -9 -24 -17 -19 -14 -19 -14 -6 3 7 9 18 17 24 17 6 0 8 -1 6 -3z m-676
-32 c4 -8 3 -16 -1 -19 -4 -3 -9 4 -9 15 -2 23 3 25 10 4z m-26 -17 c-3 -8 -6
-5 -6 6 -1 11 2 17 5 13 3 -3 4 -12 1 -19z m856 -198 c-8 -98 -25 -125 -31
-48 -3 38 8 118 26 188 6 23 7 22 9 -10 2 -19 0 -78 -4 -130z m-148 120 c3 -6
-1 -7 -9 -4 -18 7 -21 14 -7 14 6 0 13 -4 16 -10z m-162 -27 c-7 -2 -19 -2
-25 0 -7 3 -2 5 12 5 14 0 19 -2 13 -5z m-697 -29 c-3 -9 -6 -26 -6 -39 0 -19
-6 -24 -34 -27 -29 -3 -37 0 -45 20 -6 13 -9 28 -6 33 4 5 1 9 -4 9 -6 0 -11
5 -11 10 0 6 25 10 56 10 47 0 55 -3 50 -16z m864 -48 c0 -17 2 -18 10 -6 5 8
10 11 10 5 -1 -5 -7 -18 -15 -29 -8 -11 -12 -30 -8 -46 5 -28 -18 -90 -41
-109 -23 -19 -57 50 -61 128 -4 76 -2 80 49 91 36 8 56 -4 56 -34z m-1262 -18
c-7 -19 -63 -22 -78 -4 -11 14 -7 16 35 16 33 0 45 -4 43 -12z m548 -60 c-7
-36 -26 -62 -26 -36 0 39 -86 62 -124 33 -27 -21 -39 -19 -26 5 8 15 23 20 78
23 37 2 75 4 86 5 16 2 18 -3 12 -30z m-282 -83 c7 -84 6 -88 -8 -62 -11 21
-14 44 -9 93 3 35 7 63 8 62 2 -2 6 -43 9 -93z m456 -25 c0 -21 41 -32 71 -20
16 7 29 16 29 21 0 5 20 9 45 9 32 0 45 -4 45 -14 0 -20 62 -58 74 -46 15 15
63 12 81 -6 27 -27 47 -75 41 -99 -7 -26 13 -69 40 -91 18 -14 18 -15 -3 -30
-13 -9 -23 -22 -23 -28 0 -14 -56 -40 -70 -31 -14 9 -12 82 4 126 11 32 11 35
-7 37 -11 0 -23 5 -26 9 -3 4 -16 13 -27 20 -19 10 -23 8 -34 -12 -11 -21 -9
-30 19 -79 17 -31 31 -67 31 -81 0 -24 -3 -26 -37 -22 -43 5 -75 16 -84 30 -4
5 -11 -5 -17 -22 l-11 -31 -115 0 c-110 0 -116 -1 -116 -21 0 -11 -4 -17 -10
-14 -6 3 -10 -5 -10 -19 0 -13 3 -26 8 -28 4 -1 5 -75 4 -164 -4 -161 -4 -161
-26 -157 -15 3 -33 -4 -51 -20 -28 -24 -29 -25 -15 -68 19 -64 19 -107 -2
-126 -10 -9 -18 -11 -18 -5 0 6 -3 17 -6 26 -4 11 -1 16 11 16 14 0 16 6 10
33 -4 17 -9 59 -12 93 l-5 60 42 13 c36 11 41 15 36 34 -4 12 -9 66 -13 119
-5 84 -9 98 -25 104 -14 4 -17 11 -12 22 12 28 23 327 12 309 -4 -7 -8 -54 -8
-106 0 -77 -3 -96 -17 -107 -37 -28 -43 -18 -43 71 0 54 -6 99 -15 122 -13 31
-13 38 -1 52 8 9 17 28 21 43 7 26 8 26 30 12 22 -14 25 -14 44 5 11 11 32 23
46 27 14 3 25 12 25 19 0 7 6 16 13 18 22 9 77 7 77 -3z m987 -307 c-2 -16 -4
-5 -4 22 0 28 2 40 4 28 2 -13 2 -35 0 -50z m-353 28 c16 -6 10 -14 -44 -55
-75 -57 -113 -65 -118 -23 -3 23 0 27 21 27 13 0 44 13 68 30 48 32 46 32 73
21z m-924 -123 c0 -9 -23 -16 -37 -10 -21 7 -14 17 12 17 14 0 25 -3 25 -7z
m990 -103 c0 -25 -44 -105 -55 -102 -5 2 -9 10 -8 18 1 8 4 45 8 84 l7 70 24
-28 c13 -16 24 -34 24 -42z m200 18 c0 -20 -3 -24 -11 -16 -7 7 -9 19 -6 27
10 24 17 19 17 -11z m-856 -113 c-12 -23 -13 -24 -14 -4 0 12 3 43 7 70 l7 49
7 -45 c4 -30 2 -53 -7 -70z m179 99 c35 -19 58 -52 44 -64 -16 -13 -37 -61
-37 -85 0 -14 10 -21 41 -27 22 -4 40 -11 41 -16 2 -34 -16 -166 -22 -162 -5
3 -10 -5 -12 -17 -2 -12 -16 -29 -33 -39 -39 -23 -48 -23 -43 -1 8 30 -16 52
-66 58 -37 5 -50 3 -66 -11 -24 -22 -28 -85 -5 -85 8 0 15 4 15 8 0 5 6 16 13
26 13 18 15 18 43 1 16 -10 34 -24 40 -31 16 -19 2 -96 -24 -129 l-23 -29 -24
29 c-14 17 -24 43 -25 61 0 43 -24 63 -40 34 -6 -12 -9 -28 -6 -35 3 -8 -6
-17 -23 -23 -24 -9 -28 -7 -37 17 -6 14 -10 86 -9 160 2 131 3 135 27 155 14
12 28 33 32 49 6 24 9 26 26 17 11 -6 20 -17 20 -26 0 -10 7 -13 24 -8 21 5
25 2 29 -23 3 -20 4 -16 6 15 1 40 -22 102 -41 110 -12 5 -9 22 5 35 6 7 32
19 57 28 25 9 46 17 48 18 2 0 13 -4 25 -10z m757 -49 c15 -11 39 -24 52 -29
l25 -10 -17 -52 c-15 -42 -17 -73 -13 -174 l6 -122 -33 -6 c-54 -11 -87 -8
-94 9 -3 9 0 39 8 67 8 29 16 63 18 76 3 24 38 40 38 18 0 -7 3 -7 9 -2 11 12
2 75 -10 75 -5 0 -9 5 -9 11 0 6 -9 22 -20 36 -23 29 -26 74 -8 103 16 24 14
24 48 0z m-479 -149 l-4 -66 -17 62 c-10 35 -21 76 -25 92 l-6 30 28 -26 c26
-24 28 -30 24 -92z m64 33 c-5 -51 -10 -72 -16 -63 -5 8 -9 28 -9 46 0 17 -5
35 -11 38 -6 5 -3 13 10 22 12 8 21 21 21 30 0 9 3 14 6 10 4 -3 3 -41 -1 -83z
m665 67 c0 -6 -5 -13 -10 -16 -6 -4 -16 -20 -23 -37 l-12 -30 -23 20 c-29 25
-28 29 11 52 35 22 57 26 57 11z m-43 -133 c-3 -8 -6 -5 -6 6 -1 11 2 17 5 13
3 -3 4 -12 1 -19z m-97 -90 c0 -5 -4 -6 -10 -3 -5 3 -10 0 -10 -7 0 -10 -3 -9
-9 2 -6 8 -8 17 -5 22 6 9 34 -1 34 -14z m-785 -157 c3 -5 19 -12 35 -16 35
-8 36 -16 10 -72 -16 -37 -23 -43 -50 -43 -16 0 -30 5 -30 11 0 6 -9 22 -20
36 -24 31 -25 61 -4 91 12 18 19 20 34 12 10 -6 21 -14 25 -19z m195 -50 c0
-5 -7 -12 -16 -15 -14 -5 -15 -4 -4 9 14 17 20 19 20 6z m634 -77 c9 -3 16
-16 16 -28 0 -17 2 -18 10 -6 5 8 10 11 10 7 0 -4 -7 -18 -15 -30 -8 -12 -13
-40 -13 -63 3 -52 -36 -112 -59 -93 -29 25 -41 64 -39 134 1 75 -2 72 68 84 3
0 13 -2 22 -5z m-663 -18 c-6 -8 -20 -16 -31 -19 -16 -4 -17 -2 -7 14 6 10 20
19 31 19 15 0 16 -3 7 -14z m-851 -17 c0 -18 -2 -19 -15 -9 -8 7 -15 16 -15
21 0 5 7 9 15 9 9 0 15 -9 15 -21z m748 -51 c-9 -14 -13 -39 -10 -64 2 -24 -1
-45 -7 -48 -8 -5 -11 13 -11 57 0 66 4 77 28 77 12 0 12 -3 0 -22z m-358 -194
c-7 -20 -16 -32 -21 -27 -5 5 -1 25 9 46 20 45 29 32 12 -19z m389 -144 c4 -8
7 -26 7 -40 -1 -22 -5 -25 -34 -23 -18 0 -35 3 -37 5 -3 2 3 28 12 57 16 48
18 51 31 34 7 -10 17 -25 21 -33z m226 -76 c32 -34 31 -40 -2 -57 -31 -16 -73
-9 -98 16 -21 22 -19 30 13 49 38 24 59 22 87 -8z"/>
<path d="M1031 3944 c0 -11 3 -14 6 -6 3 7 2 16 -1 19 -3 4 -6 -2 -5 -13z"/>
<path d="M1051 3864 c0 -11 3 -14 6 -6 3 7 2 16 -1 19 -3 4 -6 -2 -5 -13z"/>
<path d="M1080 3746 c0 -20 2 -36 4 -36 8 0 12 61 4 66 -4 3 -8 -11 -8 -30z"/>
<path d="M1076 3647 c-6 -24 1 -37 12 -21 4 6 13 13 20 15 8 3 6 8 -7 16 -16
10 -20 9 -25 -10z"/>
<path d="M1982 5900 c0 -19 2 -27 5 -17 2 9 2 25 0 35 -3 9 -5 1 -5 -18z"/>
<path d="M3856 5912 c-10 -17 -9 -135 2 -162 9 -24 10 -24 19 15 17 73 2 183
-21 147z"/>
<path d="M2291 5774 c0 -11 3 -14 6 -6 3 7 2 16 -1 19 -3 4 -6 -2 -5 -13z"/>
<path d="M3355 5750 c-3 -5 1 -10 10 -10 9 0 13 5 10 10 -3 6 -8 10 -10 10 -2
0 -7 -4 -10 -10z"/>
<path d="M3450 5750 c0 -5 5 -10 10 -10 6 0 10 5 10 10 0 6 -4 10 -10 10 -5 0
-10 -4 -10 -10z"/>
<path d="M2071 5644 c0 -11 3 -14 6 -6 3 7 2 16 -1 19 -3 4 -6 -2 -5 -13z"/>
<path d="M3450 5635 c0 -8 7 -15 15 -15 9 0 12 6 9 15 -4 8 -10 15 -15 15 -5
0 -9 -7 -9 -15z"/>
<path d="M2081 5594 c0 -11 3 -14 6 -6 3 7 2 16 -1 19 -3 4 -6 -2 -5 -13z"/>
<path d="M2328 5531 c-1 -33 0 -57 4 -55 3 2 8 1 11 -3 2 -5 2 -2 1 5 -2 7 6
12 19 13 l22 0 -23 12 c-20 9 -23 17 -20 49 2 21 0 38 -3 38 -4 0 -9 -27 -11
-59z"/>
<path d="M5700 5560 c-11 -7 -3 -10 30 -9 34 0 40 2 25 9 -27 12 -37 12 -55 0z"/>
<path d="M2090 5544 c0 -10 5 -26 10 -34 8 -11 9 -7 4 15 -8 37 -14 45 -14 19z"/>
<path d="M3160 5530 c0 -5 7 -10 15 -10 34 0 75 -31 84 -63 l9 -32 1 42 c1 23
4 48 7 57 5 14 -3 16 -55 16 -34 0 -61 -4 -61 -10z"/>
<path d="M3025 5489 c-4 -5 -9 -51 -11 -102 -3 -74 -1 -94 13 -109 15 -17 17
-17 35 -1 16 14 18 28 14 110 -3 52 -8 98 -11 103 -8 13 -32 13 -40 -1z"/>
<path d="M3888 5395 c2 -19 6 -35 8 -35 2 0 4 16 4 35 0 19 -4 35 -8 35 -4 0
-6 -16 -4 -35z"/>
<path d="M3951 5313 c0 -36 3 -43 9 -28 12 28 12 63 0 70 -6 4 -10 -12 -9 -42z"/>
<path d="M817 5283 c-4 -3 -7 -12 -7 -20 0 -15 26 -18 34 -4 7 11 -18 33 -27
24z"/>
<path d="M960 5260 c0 -15 5 -20 18 -18 9 2 17 10 17 18 0 8 -8 16 -17 18 -13
2 -18 -3 -18 -18z"/>
<path d="M2090 5250 c0 -6 40 -10 100 -10 60 0 100 4 100 10 0 6 -40 10 -100
10 -60 0 -100 -4 -100 -10z"/>
<path d="M885 5220 c3 -5 10 -10 16 -10 5 0 9 5 9 10 0 6 -7 10 -16 10 -8 0
-12 -4 -9 -10z"/>
<path d="M2090 5210 c0 -6 40 -10 100 -10 60 0 100 4 100 10 0 6 -40 10 -100
10 -60 0 -100 -4 -100 -10z"/>
<path d="M2090 5170 c0 -13 120 -13 140 0 10 7 -9 10 -62 10 -46 0 -78 -4 -78
-10z"/>
<path d="M6111 5096 c-11 -13 -12 -22 -2 -42 14 -31 15 -146 1 -124 -7 12 -10
12 -10 1 0 -7 -11 -22 -25 -33 -20 -15 -25 -28 -25 -63 0 -25 8 -60 17 -79 16
-34 16 -37 -3 -58 -10 -12 -13 -18 -6 -14 9 5 12 -3 12 -32 0 -22 7 -79 17
-128 9 -49 17 -101 17 -116 1 -16 4 -28 8 -28 4 0 8 -12 10 -27 2 -16 17 33
35 117 43 192 49 236 33 255 -8 10 -9 19 -3 28 6 6 13 35 16 63 7 59 -8 88
-47 98 -24 6 -25 9 -28 103 -3 84 -5 94 -17 79z"/>
<path d="M2563 5045 c0 -33 2 -45 4 -27 2 18 2 45 0 60 -2 15 -4 0 -4 -33z"/>
<path d="M5863 4979 c-6 -6 -8 -30 -5 -55 5 -50 -2 -55 -29 -19 -37 46 -129
42 -164 -9 -20 -28 -20 -106 0 -106 8 0 15 -9 15 -19 0 -11 5 -23 10 -26 6 -3
10 -17 10 -29 0 -32 49 -53 79 -34 12 7 21 20 21 29 0 19 29 79 38 79 3 0 15
-9 27 -20 l22 -20 18 20 c16 18 17 29 8 101 -5 44 -5 83 0 86 10 6 -11 33 -27
33 -7 0 -17 -5 -23 -11z"/>
<path d="M2572 4950 c0 -14 2 -19 5 -12 2 6 2 18 0 25 -3 6 -5 1 -5 -13z"/>
<path d="M3905 4838 c8 -95 9 -98 36 -98 17 0 19 8 19 90 l0 90 -31 0 -31 0 7
-82z"/>
<path d="M5524 4865 c-4 -9 -2 -21 3 -26 14 -14 45 1 41 20 -4 22 -37 26 -44
6z m27 -18 c-13 -13 -26 -3 -16 12 3 6 11 8 17 5 6 -4 6 -10 -1 -17z"/>
<path d="M957 4783 c-9 -8 -7 -130 2 -163 12 -43 25 -3 26 78 0 68 -11 102
-28 85z"/>
<path d="M5632 4711 c-7 -18 -7 -31 -2 -31 11 0 25 48 17 56 -2 3 -9 -9 -15
-25z"/>
<path d="M3907 4723 c-4 -3 -7 -15 -7 -25 0 -13 8 -18 30 -18 23 0 30 5 30 19
0 24 -37 41 -53 24z"/>
<path d="M6211 4674 c0 -11 3 -14 6 -6 3 7 2 16 -1 19 -3 4 -6 -2 -5 -13z"/>
<path d="M5940 4655 c7 -8 16 -15 20 -15 4 0 10 7 14 15 4 11 -2 15 -21 15
-21 0 -24 -2 -13 -15z"/>
<path d="M3930 4625 c-19 -6 -36 -19 -38 -28 -3 -15 6 -17 62 -17 58 0 66 2
66 19 0 28 -46 41 -90 26z"/>
<path d="M1600 4595 c0 -8 7 -15 15 -15 8 0 15 7 15 15 0 8 -7 15 -15 15 -8 0
-15 -7 -15 -15z"/>
<path d="M1750 4586 c0 -9 7 -16 16 -16 9 0 14 5 12 12 -6 18 -28 21 -28 4z"/>
<path d="M2017 4581 c3 -11 11 -25 18 -31 11 -9 12 -7 8 9 -3 11 -11 25 -18
31 -11 9 -12 7 -8 -9z"/>
<path d="M265 4541 c-3 -5 -1 -12 5 -16 12 -7 30 2 30 16 0 12 -27 12 -35 0z"/>
<path d="M1816 4527 c-10 -15 -32 -35 -48 -43 -38 -20 -32 -36 20 -51 l41 -12
6 33 c4 18 5 48 3 67 l-3 34 -19 -28z"/>
<path d="M415 4531 c-7 -12 12 -24 25 -16 11 7 4 25 -10 25 -5 0 -11 -4 -15
-9z"/>
<path d="M6800 4510 c0 -6 -5 -9 -11 -7 -20 4 -79 -92 -79 -129 0 -44 12 -43
33 1 16 34 18 35 75 35 57 0 59 -1 78 -35 22 -42 34 -45 34 -9 0 39 -29 92
-64 118 -37 28 -66 39 -66 26z"/>
<path d="M200 4453 c0 -73 8 -85 48 -77 38 8 65 35 42 42 -23 8 -70 59 -70 76
0 9 -4 16 -10 16 -6 0 -10 -26 -10 -57z"/>
<path d="M6001 4494 c0 -11 3 -14 6 -6 3 7 2 16 -1 19 -3 4 -6 -2 -5 -13z"/>
<path d="M6280 4496 c0 -9 5 -16 10 -16 6 0 10 4 10 9 0 6 -4 13 -10 16 -5 3
-10 -1 -10 -9z"/>
<path d="M6376 4501 c-4 -7 -5 -15 -2 -18 9 -9 19 4 14 18 -4 11 -6 11 -12 0z"/>
<path d="M2650 4411 c23 -21 45 -31 67 -31 36 0 40 7 19 35 -12 17 -17 18 -41
7 -23 -11 -32 -10 -54 3 -19 12 -17 8 9 -14z"/>
<path d="M421 4421 c-8 -5 -11 -16 -8 -25 10 -25 27 -19 27 9 0 28 0 28 -19
16z"/>
<path d="M1854 4398 c9 -12 19 -49 23 -82 l7 -61 7 40 c4 22 8 59 8 83 1 40 0
42 -30 42 -29 0 -30 -1 -15 -22z"/>
<path d="M6253 4372 c-3 -9 -8 -20 -10 -24 -7 -13 3 -9 26 11 18 16 19 20 6
25 -10 3 -18 -1 -22 -12z"/>
<path d="M1371 4344 c0 -11 3 -14 6 -6 3 7 2 16 -1 19 -3 4 -6 -2 -5 -13z"/>
<path d="M6760 4330 c0 -5 5 -10 10 -10 6 0 10 5 10 10 0 6 -4 10 -10 10 -5 0
-10 -4 -10 -10z"/>
<path d="M6860 4330 c0 -5 5 -10 10 -10 6 0 10 5 10 10 0 6 -4 10 -10 10 -5 0
-10 -4 -10 -10z"/>
<path d="M1103 4285 c0 -27 2 -38 4 -22 2 15 2 37 0 50 -2 12 -4 0 -4 -28z"/>
<path d="M1460 4300 c0 -11 5 -20 10 -20 6 0 10 9 10 20 0 11 -4 20 -10 20 -5
0 -10 -9 -10 -20z"/>
<path d="M1550 4245 c0 -15 6 -25 14 -25 7 0 16 11 18 25 4 19 1 25 -13 25
-14 0 -19 -7 -19 -25z"/>
<path d="M5361 4014 c0 -11 3 -14 6 -6 3 7 2 16 -1 19 -3 4 -6 -2 -5 -13z"/>
<path d="M5191 3984 c0 -11 3 -14 6 -6 3 7 2 16 -1 19 -3 4 -6 -2 -5 -13z"/>
<path d="M5366 3953 c-6 -14 -5 -15 5 -6 7 7 10 15 7 18 -3 3 -9 -2 -12 -12z"/>
<path d="M5381 3924 c0 -11 3 -14 6 -6 3 7 2 16 -1 19 -3 4 -6 -2 -5 -13z"/>
<path d="M5141 3874 c0 -11 3 -14 6 -6 3 7 2 16 -1 19 -3 4 -6 -2 -5 -13z"/>
<path d="M5151 3824 c0 -11 3 -14 6 -6 3 7 2 16 -1 19 -3 4 -6 -2 -5 -13z"/>
<path d="M5410 3795 c0 -19 2 -35 4 -35 2 0 6 16 8 35 2 19 0 35 -4 35 -4 0
-8 -16 -8 -35z"/>
<path d="M5161 3774 c0 -11 3 -14 6 -6 3 7 2 16 -1 19 -3 4 -6 -2 -5 -13z"/>
<path d="M5230 3765 c0 -5 5 -17 10 -25 5 -8 10 -10 10 -5 0 6 -5 17 -10 25
-5 8 -10 11 -10 5z"/>
<path d="M5166 3735 c-3 -8 -1 -15 4 -15 6 0 10 7 10 15 0 8 -2 15 -4 15 -2 0
-6 -7 -10 -15z"/>
<path d="M5407 3708 c-4 -12 1 -27 10 -36 14 -15 15 -14 9 5 -5 15 -2 22 9 25
13 2 13 5 -4 15 -16 10 -20 9 -24 -9z"/>
<path d="M2250 3695 c0 -9 5 -15 11 -13 6 2 11 8 11 13 0 5 -5 11 -11 13 -6 2
-11 -4 -11 -13z"/>
<path d="M505 3589 c-10 -15 3 -25 16 -12 7 7 7 13 1 17 -6 3 -14 1 -17 -5z"/>
<path d="M600 3585 c0 -8 5 -15 10 -15 6 0 10 7 10 15 0 8 -4 15 -10 15 -5 0
-10 -7 -10 -15z"/>
<path d="M520 3439 c-13 -24 -4 -41 10 -19 10 16 13 40 5 40 -2 0 -9 -9 -15
-21z"/>
<path d="M2034 3398 c-13 -20 -13 -88 -2 -143 11 -49 11 -50 20 -20 9 30 10
72 5 132 -4 38 -12 49 -23 31z"/>
<path d="M285 3259 c-10 -15 1 -23 20 -15 9 3 13 10 10 16 -8 13 -22 13 -30
-1z"/>
<path d="M436 3253 c-11 -11 -6 -23 8 -23 8 0 17 4 20 9 7 10 -19 23 -28 14z"/>
<path d="M2122 3244 c-44 -31 -66 -109 -42 -153 6 -12 5 -29 -3 -50 -14 -39 2
-59 56 -68 29 -4 37 -2 37 9 0 9 8 26 18 39 23 30 52 118 52 157 0 21 -9 38
-31 56 -35 30 -56 32 -87 10z"/>
<path d="M495 3180 c-4 -11 -22 -28 -40 -38 -24 -12 -32 -21 -26 -30 9 -14 76
-33 85 -24 4 3 6 29 6 59 0 53 -13 71 -25 33z"/>
<path d="M656 3182 c-4 -13 -5 -26 -2 -29 10 -11 18 4 14 29 l-4 23 -8 -23z"/>
<path d="M776 3142 c-10 -17 -9 -135 2 -162 9 -24 10 -24 20 15 17 70 1 183
-22 147z"/>
<path d="M2208 2891 c-16 -15 -28 -37 -28 -51 0 -24 3 -25 55 -25 l55 0 0 32
c0 23 -6 36 -22 44 -13 7 -25 15 -28 19 -3 4 -17 -5 -32 -19z"/>
<path d="M1935 2390 c-8 -14 3 -30 21 -30 8 0 14 9 14 20 0 21 -24 28 -35 10z"/>
<path d="M2084 2379 c-3 -6 -2 -15 4 -21 13 -13 32 -2 32 18 0 16 -26 19 -36
3z"/>
<path d="M2018 2333 c7 -3 16 -2 19 1 4 3 -2 6 -13 5 -11 0 -14 -3 -6 -6z"/>
<path d="M552 2130 c0 -14 2 -19 5 -12 2 6 2 18 0 25 -3 6 -5 1 -5 -13z"/>
<path d="M563 2050 c0 -30 2 -43 4 -27 2 15 2 39 0 55 -2 15 -4 2 -4 -28z"/>
<path d="M2690 2091 c0 -6 5 -13 10 -16 6 -3 10 1 10 9 0 9 -4 16 -10 16 -5 0
-10 -4 -10 -9z"/>
<path d="M2796 2082 c-3 -6 -1 -14 5 -17 15 -10 25 3 12 16 -7 7 -13 7 -17 1z"/>
<path d="M281 2008 c-1 -40 20 -55 59 -43 15 5 20 15 19 43 0 32 -1 34 -9 15
-6 -14 -18 -23 -30 -23 -12 0 -24 9 -30 23 -8 19 -9 17 -9 -15z"/>
<path d="M2720 1838 c0 -13 -11 -73 -24 -135 -19 -91 -21 -116 -11 -129 28
-39 37 -4 48 214 3 39 0 72 -4 72 -5 0 -9 -10 -9 -22z"/>
<path d="M2066 1565 c-3 -9 -5 -31 -5 -48 1 -27 3 -24 9 13 8 48 6 61 -4 35z"/>
<path d="M2507 1563 c-9 -15 -1 -148 10 -168 10 -17 12 -13 17 25 9 64 3 143
-11 147 -6 2 -13 0 -16 -4z"/>
<path d="M2153 1070 c0 -36 2 -50 4 -32 2 17 2 47 0 65 -2 17 -4 3 -4 -33z"/>
<path d="M2163 910 c0 -36 2 -50 4 -32 2 17 2 47 0 65 -2 17 -4 3 -4 -33z"/>
<path d="M2198 833 c7 -3 16 -2 19 1 4 3 -2 6 -13 5 -11 0 -14 -3 -6 -6z"/>
<path d="M2296 295 c-13 -10 -23 -12 -30 -5 -15 15 -53 12 -60 -6 -15 -39 30
-46 81 -11 18 12 33 25 33 30 0 9 -2 9 -24 -8z"/>
<path d="M2389 280 c47 -40 112 -39 91 0 -12 22 -31 25 -60 10 -13 -7 -21 -7
-25 0 -3 5 -12 10 -18 10 -7 -1 -1 -10 12 -20z"/>
</g>
</svg>
